<?xml version="1.0" encoding="utf-8"?>
<!-- Generator: Adobe Illustrator 16.0.0, SVG Export Plug-In . SVG Version: 6.00 Build 0)  -->
<!DOCTYPE svg PUBLIC "-//W3C//DTD SVG 1.1//EN" "http://www.w3.org/Graphics/SVG/1.1/DTD/svg11.dtd">
<svg version="1.1" xmlns="http://www.w3.org/2000/svg" xmlns:xlink="http://www.w3.org/1999/xlink" x="0px" y="0px" width="1280px"
	 height="748.755px" viewBox="0 0 1280 748.755" enable-background="new 0 0 1280 748.755" xml:space="preserve">
<g id="Layer_1" display="none">
</g>
<g id="Source">
</g>
<g id="Layer_2">
</g>
<g id="Layer_4">
	<g>
		<g>
			<path fill="#DED7D5" d="M787.46,544.495c-4.662-65.207-28.44-216.869-148.743-216.876c-34.354-0.012-138.909-0.033-149.19,215.76
				l-91.033-4.352c12.568-263.265,155.905-302.559,240.242-302.548c80.64,0.016,145.659,39.256,188.056,113.504
				c36.043,63.155,47.935,137.114,51.572,188.027L787.46,544.495z"/>
		</g>
		<path fill="#EED42C" d="M961.455,1127.476c0.011,24.148-19.577,43.728-43.741,43.738l-558.728-0.064
			c-24.162-0.005-43.742-19.593-43.746-43.749l0.072-558.721c0.012-24.168,19.578-43.75,43.757-43.744l558.718,0.072
			c24.157-0.013,43.736,19.575,43.755,43.741L961.455,1127.476z"/>
		<path fill="#FCEDAE" d="M820.362,565.049c17.747-0.983,35.496-1.729,53.273-2.336c8.856-0.339,17.739-0.587,26.613-0.82
			l26.636-0.699l3.792-0.107l0.063,3.973c0.294,16.509,0.762,33.029,0.881,49.545c0.186,16.504,0.514,33.022,0.514,49.539
			l0.196,49.552l-0.219,49.534l-0.574,49.545l-0.97,49.566c-0.505,16.518-0.863,33.02-1.529,49.535
			c-0.549,16.506-1.299,33.031-2.221,49.546c-0.896-16.521-1.627-33.042-2.196-49.545c-0.635-16.515-1.007-33.037-1.491-49.551
			l-0.97-49.542l-0.557-49.542l-0.2-49.544l0.183-49.537c0.019-16.528,0.351-33.049,0.522-49.562
			c0.137-16.51,0.617-33.04,0.918-49.555l3.856,3.88l-26.638-0.717c-8.876-0.236-17.758-0.49-26.63-0.833
			C855.855,566.771,838.117,566.025,820.362,565.049z"/>
		<g>
			<path opacity="0.2" fill="#1E1E1E" d="M542.588,680.4c-4.975,57.43,37.566,107.986,94.979,112.95
				c57.43,4.962,108.001-37.564,112.976-94.991c4.952-57.422-37.58-108.001-95.003-112.952
				C598.104,580.448,547.549,622.966,542.588,680.4z"/>
			<path fill="#F2F0F1" d="M544.873,671.725c-4.966,57.42,37.542,107.998,94.965,112.95c57.435,4.958,108-37.573,112.951-94.979
				c4.966-57.436-37.551-108-94.979-112.958C600.391,571.77,549.81,614.316,544.873,671.725z"/>
			<path fill="#EFD42F" d="M629.909,626.94c7.163,0.627,13.553-5.781,14.288-14.3c0.535-6.069-2.031-11.453-6.115-14.343
				c4.215-2.281,8.729-3.446,13.395-3.027c17.492,1.508,29.899,23.208,27.723,48.481c-0.961,11.177-4.721,21.036-10.016,28.575
				c-1.384-3.275-4.004-5.728-7.356-6.018c-5.138-0.442-9.772,4.179-10.31,10.307c-0.27,3.269,0.715,6.223,2.394,8.428
				c-3.322,1.293-6.779,2.022-10.33,1.722c-17.508-1.51-29.9-23.238-27.721-48.498c0.575-6.682,2.144-12.878,4.427-18.439
				C622.326,623.723,625.688,626.587,629.909,626.94z"/>
			<path fill="#1E1C1D" d="M629.909,626.94c7.163,0.627,13.553-5.781,14.288-14.3c0.101-1.126-0.156-2.141-0.257-3.247
				c2.871-1.243,5.925-1.898,9.051-1.614c13.552,1.17,23.212,17.438,21.583,36.359c-0.805,9.361-4.237,17.59-9.141,23.38
				c-1.085-0.653-2.31-1.091-3.606-1.209c-4.958-0.419-9.337,3.881-10.133,9.679c-1.512,0.275-3.066,0.387-4.623,0.246
				c-13.538-1.163-23.196-17.431-21.569-36.344c0.416-4.813,1.535-9.313,3.181-13.352
				C629.104,626.64,629.455,626.906,629.909,626.94z"/>
		</g>
		<g>
			<path fill="#F7F0F2" d="M855.381,501.503c-3.576-0.002-6.703-2.645-7.197-6.3c-28.953-210.861-175.325-231.869-176.811-232.06
				c-3.976-0.495-6.813-4.153-6.313-8.15c0.504-3.99,4.177-6.849,8.149-6.314c1.651,0.207,40.717,5.501,83.805,38.541
				c39.43,30.221,89.752,90.489,105.614,205.987c0.541,4.004-2.251,7.677-6.233,8.227
				C856.057,501.473,855.71,501.501,855.381,501.503z"/>
		</g>
	</g>
	<g>
		<path fill="#3E5062" d="M594.289,401.496v43.07h7.661v12.631h-7.661v16.048h-15.116v-16.048h-30.957v-11.285
			c1.518-3.036,3.417-6.471,5.694-10.302c2.278-3.83,4.814-7.765,7.61-11.803c2.795-4.037,5.746-7.988,8.852-11.854
			c3.106-3.864,6.212-7.351,9.318-10.457H594.289z M579.173,420.34c-2.692,3.52-5.557,7.351-8.594,11.492
			c-3.038,4.141-5.591,8.386-7.661,12.734h16.255V420.34z"/>
		<path fill="#3E5062" d="M660.239,437.216c0,12.079-2.296,21.346-6.885,27.799c-4.592,6.454-10.923,9.68-18.999,9.68
			c-8.075,0-14.409-3.226-18.998-9.68c-4.591-6.453-6.885-15.72-6.885-27.799c0-6.005,0.604-11.319,1.812-15.944
			c1.207-4.624,2.95-8.523,5.229-11.699c2.277-3.174,5.004-5.591,8.179-7.248c3.174-1.656,6.729-2.484,10.664-2.484
			c8.076,0,14.407,3.228,18.999,9.681C657.943,415.975,660.239,425.206,660.239,437.216z M644.502,437.216
			c0-3.589-0.173-6.85-0.518-9.784c-0.347-2.933-0.897-5.47-1.656-7.609c-0.761-2.139-1.796-3.796-3.106-4.97
			c-1.312-1.173-2.935-1.761-4.866-1.761c-1.933,0-3.538,0.588-4.814,1.761c-1.277,1.174-2.313,2.831-3.105,4.97
			c-0.795,2.14-1.364,4.677-1.709,7.609c-0.346,2.935-0.518,6.195-0.518,9.784s0.172,6.868,0.518,9.835
			c0.345,2.969,0.914,5.523,1.709,7.662c0.792,2.14,1.828,3.797,3.105,4.97c1.276,1.174,2.882,1.76,4.814,1.76
			c1.932,0,3.555-0.586,4.866-1.76c1.311-1.173,2.346-2.83,3.106-4.97c0.759-2.139,1.31-4.693,1.656-7.662
			C644.329,444.084,644.502,440.805,644.502,437.216z"/>
		<path fill="#3E5062" d="M711.901,401.496v43.07h7.661v12.631h-7.661v16.048h-15.116v-16.048h-30.957v-11.285
			c1.518-3.036,3.417-6.471,5.694-10.302c2.278-3.83,4.814-7.765,7.61-11.803c2.795-4.037,5.746-7.988,8.852-11.854
			c3.106-3.864,6.212-7.351,9.318-10.457H711.901z M696.785,420.34c-2.692,3.52-5.557,7.351-8.594,11.492
			c-3.038,4.141-5.591,8.386-7.661,12.734h16.255V420.34z"/>
	</g>
	<path fill="#EED42C" d="M119.511,748.755c0,0,17.928-42.385,45.479-21.192c0,0,12.716-19.075,29.672-19.075
		s27.552,20.133,27.552,20.133s39.106-24.374,44.404,20.135H119.511z"/>
	<path fill="#EED42C" d="M1003.021,748.755c0,0,17.928-42.385,45.479-21.192c0,0,12.716-19.075,29.672-19.075
		s27.553,20.133,27.553,20.133s39.106-24.374,44.403,20.135H1003.021z"/>
	<g>
		<path fill="#3E5062" d="M109.043,83.063c0.683,1.247,1.468,2.787,2.359,4.62c0.891,1.834,1.818,3.818,2.785,5.953
			c0.967,2.136,1.923,4.318,2.871,6.548c0.947,2.231,1.837,4.329,2.672,6.294c0.833-1.965,1.724-4.063,2.672-6.294
			c0.946-2.229,1.903-4.412,2.87-6.548c0.966-2.135,1.895-4.119,2.785-5.953c0.891-1.833,1.678-3.373,2.359-4.62h8.051
			c0.377,2.607,0.728,5.527,1.049,8.759c0.32,3.231,0.604,6.597,0.851,10.092c0.245,3.496,0.472,7.002,0.68,10.517
			c0.208,3.516,0.388,6.823,0.539,9.922h-8.617c-0.114-3.817-0.266-7.975-0.454-12.473c-0.189-4.498-0.473-9.033-0.851-13.606
			c-0.683,1.587-1.441,3.345-2.274,5.272c-0.835,1.928-1.659,3.855-2.475,5.782c-0.814,1.928-1.602,3.771-2.359,5.528
			c-0.759,1.757-1.403,3.26-1.934,4.507h-6.181c-0.531-1.247-1.175-2.75-1.934-4.507c-0.758-1.758-1.546-3.601-2.36-5.528
			c-0.815-1.927-1.64-3.854-2.474-5.782s-1.593-3.686-2.274-5.272c-0.379,4.573-0.662,9.108-0.851,13.606
			c-0.189,4.498-0.34,8.655-0.454,12.473h-8.617c0.15-3.099,0.33-6.406,0.539-9.922c0.207-3.515,0.434-7.021,0.68-10.517
			c0.246-3.495,0.529-6.86,0.851-10.092c0.32-3.231,0.671-6.151,1.049-8.759H109.043z"/>
		<path fill="#3E5062" d="M159.614,91.736c2.494,0,4.572,0.284,6.236,0.851c1.662,0.567,2.995,1.38,3.996,2.438
			c1.002,1.059,1.71,2.345,2.127,3.855c0.415,1.513,0.623,3.194,0.623,5.046v17.575c-1.21,0.265-2.892,0.577-5.046,0.936
			s-4.762,0.539-7.823,0.539c-1.928,0-3.677-0.171-5.244-0.511c-1.569-0.34-2.92-0.897-4.054-1.673
			c-1.135-0.773-2.004-1.785-2.608-3.032c-0.604-1.248-0.907-2.778-0.907-4.593c0-1.738,0.35-3.212,1.049-4.422
			c0.699-1.209,1.635-2.173,2.807-2.892c1.171-0.718,2.513-1.237,4.025-1.56c1.511-0.32,3.08-0.481,4.705-0.481
			c1.097,0,2.069,0.048,2.92,0.142c0.851,0.095,1.54,0.218,2.069,0.368v-0.793c0-1.437-0.435-2.589-1.304-3.459
			c-0.87-0.869-2.381-1.304-4.535-1.304c-1.438,0-2.854,0.104-4.253,0.312c-1.398,0.209-2.607,0.502-3.628,0.879l-1.077-6.803
			c0.49-0.151,1.105-0.313,1.843-0.482c0.736-0.17,1.539-0.32,2.409-0.453c0.869-0.132,1.786-0.246,2.75-0.341
			C157.658,91.784,158.631,91.736,159.614,91.736z M160.294,116.455c0.831,0,1.625-0.019,2.381-0.057
			c0.756-0.037,1.361-0.094,1.814-0.17v-6.406c-0.34-0.075-0.851-0.15-1.53-0.227c-0.681-0.076-1.304-0.114-1.871-0.114
			c-0.794,0-1.541,0.048-2.239,0.143c-0.7,0.095-1.313,0.274-1.843,0.538c-0.529,0.265-0.945,0.624-1.247,1.077
			c-0.303,0.454-0.454,1.021-0.454,1.701c0,1.323,0.444,2.239,1.333,2.75C157.525,116.2,158.744,116.455,160.294,116.455z"/>
		<path fill="#3E5062" d="M190.966,91.736c2.494,0,4.573,0.284,6.236,0.851c1.663,0.567,2.995,1.38,3.997,2.438
			c1.001,1.059,1.71,2.345,2.126,3.855c0.415,1.513,0.624,3.194,0.624,5.046v17.575c-1.21,0.265-2.892,0.577-5.046,0.936
			s-4.763,0.539-7.824,0.539c-1.928,0-3.676-0.171-5.244-0.511s-2.92-0.897-4.054-1.673c-1.134-0.773-2.004-1.785-2.607-3.032
			c-0.605-1.248-0.907-2.778-0.907-4.593c0-1.738,0.349-3.212,1.049-4.422c0.698-1.209,1.634-2.173,2.806-2.892
			c1.172-0.718,2.514-1.237,4.025-1.56c1.512-0.32,3.08-0.481,4.706-0.481c1.096,0,2.069,0.048,2.92,0.142
			c0.851,0.095,1.539,0.218,2.069,0.368v-0.793c0-1.437-0.436-2.589-1.305-3.459c-0.869-0.869-2.381-1.304-4.535-1.304
			c-1.437,0-2.854,0.104-4.252,0.312c-1.398,0.209-2.608,0.502-3.629,0.879l-1.077-6.803c0.491-0.151,1.105-0.313,1.843-0.482
			s1.54-0.32,2.41-0.453c0.868-0.132,1.785-0.246,2.749-0.341C189.01,91.784,189.982,91.736,190.966,91.736z M191.646,116.455
			c0.831,0,1.624-0.019,2.381-0.057c0.756-0.037,1.36-0.094,1.814-0.17v-6.406c-0.341-0.075-0.851-0.15-1.531-0.227
			c-0.68-0.076-1.304-0.114-1.871-0.114c-0.793,0-1.54,0.048-2.239,0.143s-1.313,0.274-1.843,0.538
			c-0.529,0.265-0.944,0.624-1.247,1.077c-0.303,0.454-0.453,1.021-0.453,1.701c0,1.323,0.443,2.239,1.332,2.75
			C188.877,116.2,190.096,116.455,191.646,116.455z"/>
		<path fill="#3E5062" d="M224.528,78.356c1.588,0,3.042,0.161,4.365,0.482s2.344,0.633,3.062,0.936l-1.644,6.746
			c-0.757-0.34-1.579-0.595-2.467-0.766c-0.888-0.17-1.71-0.255-2.466-0.255c-1.021,0-1.881,0.142-2.58,0.426
			c-0.699,0.283-1.247,0.671-1.644,1.162s-0.681,1.077-0.851,1.757c-0.17,0.681-0.255,1.418-0.255,2.212v1.474h10.432v7.03H220.05
			v22.791h-8.447V90.942c0-3.854,1.086-6.916,3.26-9.184C217.035,79.49,220.257,78.356,224.528,78.356z"/>
		<path fill="#3E5062" d="M240.119,113.734c0.075,0.907,0.123,1.55,0.143,1.927c0.019,0.379,0.028,0.7,0.028,0.964
			c0,1.135-0.104,2.335-0.313,3.601c-0.208,1.267-0.501,2.541-0.879,3.827c-0.378,1.284-0.85,2.569-1.417,3.854
			s-1.21,2.514-1.928,3.686l-6.633-1.645c0.869-2.494,1.474-4.838,1.813-7.029c0.341-2.192,0.511-4.006,0.511-5.443
			c0-0.227-0.01-0.519-0.028-0.879c-0.02-0.358-0.038-0.727-0.057-1.105c-0.02-0.377-0.038-0.736-0.057-1.077
			c-0.02-0.34-0.028-0.566-0.028-0.68H240.119z"/>
		<path fill="#3E5062" d="M259.678,122.352V79.718l8.447-1.361v14.287c0.567-0.188,1.295-0.368,2.183-0.538
			c0.888-0.171,1.748-0.256,2.58-0.256c2.418,0,4.431,0.332,6.038,0.992c1.605,0.662,2.892,1.598,3.855,2.807
			c0.964,1.21,1.644,2.646,2.041,4.309c0.396,1.664,0.595,3.516,0.595,5.557v16.838h-8.447v-15.817c0-2.722-0.35-4.649-1.049-5.783
			c-0.7-1.134-1.994-1.701-3.884-1.701c-0.757,0-1.465,0.066-2.126,0.199c-0.662,0.133-1.257,0.274-1.786,0.425v22.678H259.678z"/>
		<path fill="#3E5062" d="M303.785,91.736c2.494,0,4.573,0.284,6.236,0.851c1.663,0.567,2.995,1.38,3.997,2.438
			c1.001,1.059,1.71,2.345,2.126,3.855c0.415,1.513,0.624,3.194,0.624,5.046v17.575c-1.21,0.265-2.892,0.577-5.046,0.936
			s-4.763,0.539-7.824,0.539c-1.928,0-3.676-0.171-5.244-0.511s-2.92-0.897-4.054-1.673c-1.134-0.773-2.004-1.785-2.607-3.032
			c-0.605-1.248-0.907-2.778-0.907-4.593c0-1.738,0.349-3.212,1.049-4.422c0.698-1.209,1.634-2.173,2.806-2.892
			c1.172-0.718,2.514-1.237,4.025-1.56c1.512-0.32,3.08-0.481,4.706-0.481c1.096,0,2.069,0.048,2.92,0.142
			c0.851,0.095,1.539,0.218,2.069,0.368v-0.793c0-1.437-0.436-2.589-1.305-3.459c-0.869-0.869-2.381-1.304-4.535-1.304
			c-1.437,0-2.854,0.104-4.252,0.312c-1.398,0.209-2.608,0.502-3.629,0.879l-1.077-6.803c0.491-0.151,1.105-0.313,1.843-0.482
			s1.54-0.32,2.41-0.453c0.868-0.132,1.785-0.246,2.749-0.341C301.829,91.784,302.802,91.736,303.785,91.736z M304.466,116.455
			c0.831,0,1.624-0.019,2.381-0.057c0.756-0.037,1.36-0.094,1.814-0.17v-6.406c-0.341-0.075-0.851-0.15-1.531-0.227
			c-0.68-0.076-1.304-0.114-1.871-0.114c-0.793,0-1.54,0.048-2.239,0.143s-1.313,0.274-1.843,0.538
			c-0.529,0.265-0.944,0.624-1.247,1.077c-0.303,0.454-0.453,1.021-0.453,1.701c0,1.323,0.443,2.239,1.332,2.75
			C301.696,116.2,302.915,116.455,304.466,116.455z"/>
		<path fill="#3E5062" d="M336.327,122.919c-2.457-0.038-4.45-0.304-5.981-0.794c-1.53-0.491-2.74-1.181-3.628-2.069
			c-0.889-0.888-1.494-1.965-1.814-3.231c-0.321-1.267-0.481-2.693-0.481-4.281V79.718l8.447-1.361v32.486
			c0,0.756,0.057,1.437,0.17,2.041s0.33,1.115,0.652,1.53c0.32,0.417,0.783,0.757,1.389,1.021c0.604,0.266,1.417,0.436,2.438,0.511
			L336.327,122.919z"/>
		<path fill="#3E5062" d="M353.902,91.736c2.494,0,4.573,0.284,6.236,0.851c1.663,0.567,2.995,1.38,3.997,2.438
			c1.001,1.059,1.71,2.345,2.126,3.855c0.415,1.513,0.624,3.194,0.624,5.046v17.575c-1.21,0.265-2.892,0.577-5.046,0.936
			s-4.763,0.539-7.824,0.539c-1.928,0-3.676-0.171-5.244-0.511s-2.92-0.897-4.054-1.673c-1.134-0.773-2.004-1.785-2.607-3.032
			c-0.605-1.248-0.907-2.778-0.907-4.593c0-1.738,0.349-3.212,1.049-4.422c0.698-1.209,1.634-2.173,2.806-2.892
			c1.172-0.718,2.514-1.237,4.025-1.56c1.512-0.32,3.08-0.481,4.706-0.481c1.096,0,2.069,0.048,2.92,0.142
			c0.851,0.095,1.539,0.218,2.069,0.368v-0.793c0-1.437-0.436-2.589-1.305-3.459c-0.869-0.869-2.381-1.304-4.535-1.304
			c-1.437,0-2.854,0.104-4.252,0.312c-1.398,0.209-2.608,0.502-3.629,0.879l-1.077-6.803c0.491-0.151,1.105-0.313,1.843-0.482
			s1.54-0.32,2.41-0.453c0.868-0.132,1.785-0.246,2.749-0.341C351.946,91.784,352.919,91.736,353.902,91.736z M354.583,116.455
			c0.831,0,1.624-0.019,2.381-0.057c0.756-0.037,1.36-0.094,1.814-0.17v-6.406c-0.341-0.075-0.851-0.15-1.531-0.227
			c-0.68-0.076-1.304-0.114-1.871-0.114c-0.793,0-1.54,0.048-2.239,0.143s-1.313,0.274-1.843,0.538
			c-0.529,0.265-0.944,0.624-1.247,1.077c-0.303,0.454-0.453,1.021-0.453,1.701c0,1.323,0.443,2.239,1.332,2.75
			C351.813,116.2,353.032,116.455,354.583,116.455z"/>
		<path fill="#3E5062" d="M390.924,106.534c0-2.722-0.351-4.649-1.049-5.783c-0.7-1.134-1.899-1.701-3.601-1.701
			c-0.529,0-1.077,0.028-1.645,0.085c-0.566,0.057-1.115,0.124-1.644,0.199v23.018h-8.447V93.551
			c0.717-0.188,1.559-0.387,2.522-0.596c0.964-0.207,1.984-0.396,3.062-0.566s2.183-0.302,3.316-0.397
			c1.134-0.094,2.249-0.142,3.346-0.142c2.154,0,3.901,0.275,5.244,0.822c1.341,0.549,2.446,1.2,3.316,1.956
			c1.209-0.869,2.598-1.549,4.167-2.041c1.567-0.49,3.014-0.737,4.337-0.737c2.381,0,4.337,0.332,5.868,0.992
			c1.53,0.662,2.749,1.598,3.656,2.807c0.907,1.21,1.531,2.646,1.871,4.309c0.341,1.664,0.511,3.516,0.511,5.557v16.838h-8.448
			v-15.817c0-2.722-0.35-4.649-1.049-5.783s-1.898-1.701-3.6-1.701c-0.453,0-1.087,0.113-1.899,0.341
			c-0.813,0.227-1.483,0.51-2.013,0.851c0.264,0.869,0.435,1.785,0.511,2.749c0.075,0.964,0.113,1.994,0.113,3.09v16.271h-8.447
			V106.534z"/>
		<path fill="#3E5062" d="M434.125,91.736c2.494,0,4.572,0.284,6.236,0.851c1.662,0.567,2.995,1.38,3.996,2.438
			c1.002,1.059,1.71,2.345,2.127,3.855c0.415,1.513,0.623,3.194,0.623,5.046v17.575c-1.21,0.265-2.892,0.577-5.046,0.936
			s-4.762,0.539-7.823,0.539c-1.928,0-3.677-0.171-5.244-0.511c-1.569-0.34-2.92-0.897-4.054-1.673
			c-1.135-0.773-2.004-1.785-2.608-3.032c-0.604-1.248-0.907-2.778-0.907-4.593c0-1.738,0.35-3.212,1.049-4.422
			c0.699-1.209,1.635-2.173,2.807-2.892c1.171-0.718,2.513-1.237,4.025-1.56c1.511-0.32,3.08-0.481,4.705-0.481
			c1.097,0,2.069,0.048,2.92,0.142c0.851,0.095,1.54,0.218,2.069,0.368v-0.793c0-1.437-0.435-2.589-1.304-3.459
			c-0.87-0.869-2.381-1.304-4.535-1.304c-1.438,0-2.854,0.104-4.253,0.312c-1.398,0.209-2.607,0.502-3.628,0.879l-1.077-6.803
			c0.49-0.151,1.105-0.313,1.843-0.482c0.736-0.17,1.539-0.32,2.409-0.453c0.869-0.132,1.786-0.246,2.75-0.341
			C432.169,91.784,433.142,91.736,434.125,91.736z M434.805,116.455c0.831,0,1.625-0.019,2.381-0.057
			c0.756-0.037,1.361-0.094,1.814-0.17v-6.406c-0.34-0.075-0.851-0.15-1.53-0.227c-0.681-0.076-1.304-0.114-1.871-0.114
			c-0.794,0-1.541,0.048-2.239,0.143c-0.7,0.095-1.313,0.274-1.843,0.538c-0.529,0.265-0.945,0.624-1.247,1.077
			c-0.303,0.454-0.454,1.021-0.454,1.701c0,1.323,0.444,2.239,1.333,2.75C432.036,116.2,433.255,116.455,434.805,116.455z"/>
		<path fill="#3E5062" d="M454.762,93.551c1.436-0.415,3.288-0.803,5.556-1.162s4.649-0.539,7.144-0.539
			c2.531,0,4.639,0.332,6.321,0.992c1.682,0.662,3.014,1.598,3.997,2.807c0.982,1.21,1.682,2.646,2.098,4.309
			c0.415,1.664,0.624,3.516,0.624,5.557v16.838h-8.448v-15.817c0-2.722-0.359-4.649-1.077-5.783s-2.061-1.701-4.025-1.701
			c-0.604,0-1.247,0.028-1.927,0.085c-0.681,0.057-1.286,0.124-1.814,0.199v23.018h-8.447V93.551z"/>
		<path fill="#3E5062" d="M528.293,92.53c-1.705,5.746-3.486,11.132-5.343,16.158c-1.856,5.027-3.885,9.902-6.082,14.627
			c-0.796,1.701-1.59,3.146-2.385,4.337c-0.796,1.19-1.666,2.173-2.612,2.948c-0.946,0.774-2.016,1.341-3.208,1.701
			c-1.192,0.358-2.583,0.538-4.172,0.538c-1.325,0-2.547-0.123-3.663-0.368c-1.116-0.246-2.034-0.521-2.753-0.822l1.474-6.747
			c0.87,0.303,1.645,0.511,2.325,0.624s1.399,0.17,2.156,0.17c1.512,0,2.675-0.406,3.487-1.219c0.813-0.813,1.504-1.938,2.071-3.373
			c-1.93-3.779-3.857-8.022-5.786-12.729c-1.929-4.705-3.744-9.986-5.444-15.846h8.958c0.379,1.474,0.825,3.071,1.338,4.791
			c0.512,1.72,1.054,3.458,1.623,5.216c0.568,1.757,1.148,3.468,1.736,5.131s1.148,3.175,1.681,4.535
			c0.492-1.36,1.005-2.872,1.537-4.535c0.531-1.663,1.053-3.374,1.564-5.131c0.513-1.758,1.006-3.496,1.48-5.216
			c0.474-1.72,0.901-3.317,1.281-4.791H528.293z"/>
		<path fill="#3E5062" d="M542.92,91.736c2.494,0,4.573,0.284,6.236,0.851c1.663,0.567,2.995,1.38,3.997,2.438
			c1.001,1.059,1.71,2.345,2.126,3.855c0.415,1.513,0.624,3.194,0.624,5.046v17.575c-1.21,0.265-2.892,0.577-5.046,0.936
			s-4.763,0.539-7.824,0.539c-1.928,0-3.676-0.171-5.244-0.511s-2.92-0.897-4.054-1.673c-1.134-0.773-2.004-1.785-2.607-3.032
			c-0.605-1.248-0.907-2.778-0.907-4.593c0-1.738,0.349-3.212,1.049-4.422c0.698-1.209,1.634-2.173,2.806-2.892
			c1.172-0.718,2.514-1.237,4.025-1.56c1.512-0.32,3.08-0.481,4.706-0.481c1.096,0,2.069,0.048,2.92,0.142
			c0.851,0.095,1.539,0.218,2.069,0.368v-0.793c0-1.437-0.436-2.589-1.305-3.459c-0.869-0.869-2.381-1.304-4.535-1.304
			c-1.437,0-2.854,0.104-4.252,0.312c-1.398,0.209-2.608,0.502-3.629,0.879l-1.077-6.803c0.491-0.151,1.105-0.313,1.843-0.482
			s1.54-0.32,2.41-0.453c0.868-0.132,1.785-0.246,2.749-0.341C540.964,91.784,541.937,91.736,542.92,91.736z M543.601,116.455
			c0.831,0,1.624-0.019,2.381-0.057c0.756-0.037,1.36-0.094,1.814-0.17v-6.406c-0.341-0.075-0.851-0.15-1.531-0.227
			c-0.68-0.076-1.304-0.114-1.871-0.114c-0.793,0-1.54,0.048-2.239,0.143s-1.313,0.274-1.843,0.538
			c-0.529,0.265-0.944,0.624-1.247,1.077c-0.303,0.454-0.453,1.021-0.453,1.701c0,1.323,0.443,2.239,1.332,2.75
			C540.831,116.2,542.05,116.455,543.601,116.455z"/>
		<path fill="#3E5062" d="M563.557,93.551c1.436-0.415,3.288-0.803,5.556-1.162s4.649-0.539,7.144-0.539
			c2.531,0,4.639,0.332,6.321,0.992c1.682,0.662,3.014,1.598,3.997,2.807c0.982,1.21,1.682,2.646,2.098,4.309
			c0.415,1.664,0.624,3.516,0.624,5.557v16.838h-8.448v-15.817c0-2.722-0.359-4.649-1.077-5.783s-2.061-1.701-4.025-1.701
			c-0.604,0-1.247,0.028-1.927,0.085c-0.681,0.057-1.286,0.124-1.814,0.199v23.018h-8.447V93.551z"/>
		<path fill="#3E5062" d="M622.688,118.609c0,4.876-1.239,8.495-3.714,10.857c-2.476,2.361-6.303,3.543-11.48,3.543
			c-1.814,0-3.629-0.161-5.442-0.481c-1.814-0.321-3.497-0.747-5.046-1.275l1.474-7.087c1.322,0.528,2.712,0.944,4.167,1.247
			c1.455,0.302,3.108,0.453,4.961,0.453c2.418,0,4.129-0.529,5.131-1.587c1.001-1.059,1.502-2.419,1.502-4.082v-1.077
			c-0.906,0.416-1.842,0.729-2.806,0.936c-0.964,0.208-2.013,0.312-3.146,0.312c-4.12,0-7.276-1.219-9.469-3.656
			c-2.192-2.438-3.288-5.849-3.288-10.233c0-2.192,0.341-4.187,1.021-5.981c0.681-1.795,1.673-3.336,2.977-4.621
			c1.304-1.284,2.9-2.276,4.791-2.977c1.89-0.698,4.025-1.049,6.406-1.049c1.021,0,2.069,0.048,3.146,0.142
			c1.077,0.096,2.145,0.219,3.203,0.369c1.058,0.151,2.069,0.331,3.033,0.538c0.964,0.209,1.823,0.426,2.58,0.652V118.609z
			 M604.149,106.478c0,4.725,1.908,7.086,5.726,7.086c0.869,0,1.682-0.113,2.438-0.34c0.755-0.227,1.397-0.49,1.927-0.794V98.937
			c-0.416-0.075-0.906-0.142-1.474-0.198s-1.229-0.085-1.984-0.085c-2.23,0-3.894,0.737-4.989,2.211
			C604.696,102.339,604.149,104.209,604.149,106.478z"/>
		<path fill="#3E5062" d="M654.946,91.736c2.494,0,4.573,0.284,6.236,0.851c1.663,0.567,2.995,1.38,3.997,2.438
			c1.001,1.059,1.71,2.345,2.126,3.855c0.415,1.513,0.624,3.194,0.624,5.046v17.575c-1.21,0.265-2.892,0.577-5.046,0.936
			s-4.763,0.539-7.824,0.539c-1.928,0-3.676-0.171-5.244-0.511s-2.92-0.897-4.054-1.673c-1.134-0.773-2.004-1.785-2.607-3.032
			c-0.605-1.248-0.907-2.778-0.907-4.593c0-1.738,0.349-3.212,1.049-4.422c0.698-1.209,1.634-2.173,2.806-2.892
			c1.172-0.718,2.514-1.237,4.025-1.56c1.512-0.32,3.08-0.481,4.706-0.481c1.096,0,2.069,0.048,2.92,0.142
			c0.851,0.095,1.539,0.218,2.069,0.368v-0.793c0-1.437-0.436-2.589-1.305-3.459c-0.869-0.869-2.381-1.304-4.535-1.304
			c-1.437,0-2.854,0.104-4.252,0.312c-1.398,0.209-2.608,0.502-3.629,0.879l-1.077-6.803c0.491-0.151,1.105-0.313,1.843-0.482
			s1.54-0.32,2.41-0.453c0.868-0.132,1.785-0.246,2.749-0.341C652.99,91.784,653.963,91.736,654.946,91.736z M655.627,116.455
			c0.831,0,1.624-0.019,2.381-0.057c0.756-0.037,1.36-0.094,1.814-0.17v-6.406c-0.341-0.075-0.851-0.15-1.531-0.227
			c-0.68-0.076-1.304-0.114-1.871-0.114c-0.793,0-1.54,0.048-2.239,0.143s-1.313,0.274-1.843,0.538
			c-0.529,0.265-0.944,0.624-1.247,1.077c-0.303,0.454-0.453,1.021-0.453,1.701c0,1.323,0.443,2.239,1.332,2.75
			C652.857,116.2,654.076,116.455,655.627,116.455z"/>
		<path fill="#3E5062" d="M675.583,93.551c1.436-0.415,3.288-0.803,5.556-1.162s4.649-0.539,7.144-0.539
			c2.531,0,4.639,0.332,6.321,0.992c1.682,0.662,3.014,1.598,3.997,2.807c0.982,1.21,1.682,2.646,2.098,4.309
			c0.415,1.664,0.624,3.516,0.624,5.557v16.838h-8.448v-15.817c0-2.722-0.359-4.649-1.077-5.783s-2.061-1.701-4.025-1.701
			c-0.604,0-1.247,0.028-1.927,0.085c-0.681,0.057-1.286,0.124-1.814,0.199v23.018h-8.447V93.551z"/>
		<path fill="#3E5062" d="M735.281,121.388c-0.756,0.227-1.625,0.444-2.607,0.652c-0.983,0.208-2.013,0.387-3.09,0.538
			c-1.077,0.15-2.174,0.274-3.289,0.369c-1.115,0.094-2.183,0.142-3.203,0.142c-2.457,0-4.648-0.36-6.576-1.077
			c-1.928-0.718-3.553-1.748-4.876-3.09s-2.334-2.967-3.033-4.876c-0.699-1.908-1.049-4.054-1.049-6.435
			c0-2.419,0.303-4.602,0.907-6.549c0.604-1.946,1.475-3.6,2.608-4.961c1.134-1.36,2.522-2.399,4.167-3.118
			c1.644-0.717,3.523-1.077,5.641-1.077c1.171,0,2.22,0.114,3.146,0.341c0.926,0.227,1.861,0.548,2.807,0.964V79.718l8.447-1.361
			V121.388z M716.176,107.214c0,2.608,0.585,4.706,1.757,6.293c1.172,1.588,2.91,2.382,5.216,2.382c0.756,0,1.455-0.028,2.098-0.085
			s1.172-0.123,1.588-0.199v-15.363c-0.529-0.341-1.219-0.624-2.069-0.851c-0.851-0.228-1.711-0.341-2.58-0.341
			C718.179,99.05,716.176,101.771,716.176,107.214z"/>
		<path fill="#3E5062" d="M753.934,91.736c2.494,0,4.572,0.284,6.236,0.851c1.662,0.567,2.995,1.38,3.996,2.438
			c1.002,1.059,1.71,2.345,2.127,3.855c0.415,1.513,0.623,3.194,0.623,5.046v17.575c-1.21,0.265-2.892,0.577-5.046,0.936
			s-4.762,0.539-7.823,0.539c-1.928,0-3.677-0.171-5.244-0.511c-1.569-0.34-2.92-0.897-4.054-1.673
			c-1.135-0.773-2.004-1.785-2.608-3.032c-0.604-1.248-0.907-2.778-0.907-4.593c0-1.738,0.35-3.212,1.049-4.422
			c0.699-1.209,1.635-2.173,2.807-2.892c1.171-0.718,2.513-1.237,4.025-1.56c1.511-0.32,3.08-0.481,4.705-0.481
			c1.097,0,2.069,0.048,2.92,0.142c0.851,0.095,1.54,0.218,2.069,0.368v-0.793c0-1.437-0.435-2.589-1.304-3.459
			c-0.87-0.869-2.381-1.304-4.535-1.304c-1.438,0-2.854,0.104-4.253,0.312c-1.398,0.209-2.607,0.502-3.628,0.879l-1.077-6.803
			c0.49-0.151,1.105-0.313,1.843-0.482c0.736-0.17,1.539-0.32,2.409-0.453c0.869-0.132,1.786-0.246,2.75-0.341
			C751.978,91.784,752.95,91.736,753.934,91.736z M754.613,116.455c0.831,0,1.625-0.019,2.381-0.057
			c0.756-0.037,1.361-0.094,1.814-0.17v-6.406c-0.34-0.075-0.851-0.15-1.53-0.227c-0.681-0.076-1.304-0.114-1.871-0.114
			c-0.794,0-1.541,0.048-2.239,0.143c-0.7,0.095-1.313,0.274-1.843,0.538c-0.529,0.265-0.945,0.624-1.247,1.077
			c-0.303,0.454-0.454,1.021-0.454,1.701c0,1.323,0.444,2.239,1.333,2.75C751.845,116.2,753.063,116.455,754.613,116.455z"/>
		<path fill="#3E5062" d="M786.759,107.441c0-2.155,0.349-4.187,1.049-6.095c0.698-1.908,1.709-3.572,3.033-4.989
			c1.322-1.418,2.929-2.542,4.818-3.374c1.89-0.83,4.044-1.247,6.464-1.247c1.587,0,3.042,0.142,4.365,0.426
			c1.322,0.283,2.607,0.689,3.855,1.219l-1.758,6.746c-0.794-0.302-1.664-0.566-2.608-0.793c-0.944-0.228-2.003-0.341-3.175-0.341
			c-2.494,0-4.356,0.775-5.584,2.325c-1.229,1.55-1.843,3.591-1.843,6.123c0,2.684,0.576,4.762,1.729,6.236
			c1.152,1.474,3.165,2.211,6.038,2.211c1.021,0,2.116-0.094,3.288-0.284c1.171-0.188,2.248-0.49,3.231-0.906l1.19,6.916
			c-0.983,0.417-2.211,0.774-3.685,1.077c-1.475,0.303-3.1,0.454-4.876,0.454c-2.722,0-5.065-0.407-7.03-1.219
			c-1.966-0.813-3.581-1.918-4.848-3.317c-1.267-1.397-2.192-3.052-2.777-4.96C787.051,111.741,786.759,109.672,786.759,107.441z"/>
		<path fill="#3E5062" d="M825.821,91.736c2.494,0,4.573,0.284,6.236,0.851c1.663,0.567,2.995,1.38,3.997,2.438
			c1.001,1.059,1.71,2.345,2.126,3.855c0.416,1.513,0.624,3.194,0.624,5.046v17.575c-1.21,0.265-2.892,0.577-5.046,0.936
			s-4.763,0.539-7.824,0.539c-1.928,0-3.676-0.171-5.244-0.511s-2.92-0.897-4.054-1.673c-1.134-0.773-2.004-1.785-2.607-3.032
			c-0.605-1.248-0.907-2.778-0.907-4.593c0-1.738,0.349-3.212,1.049-4.422c0.698-1.209,1.634-2.173,2.806-2.892
			c1.172-0.718,2.514-1.237,4.025-1.56c1.512-0.32,3.08-0.481,4.706-0.481c1.096,0,2.069,0.048,2.92,0.142
			c0.851,0.095,1.539,0.218,2.069,0.368v-0.793c0-1.437-0.436-2.589-1.305-3.459c-0.869-0.869-2.381-1.304-4.535-1.304
			c-1.437,0-2.854,0.104-4.252,0.312c-1.398,0.209-2.608,0.502-3.629,0.879l-1.077-6.803c0.491-0.151,1.105-0.313,1.843-0.482
			s1.54-0.32,2.41-0.453c0.868-0.132,1.785-0.246,2.749-0.341C823.865,91.784,824.838,91.736,825.821,91.736z M826.502,116.455
			c0.831,0,1.624-0.019,2.381-0.057c0.756-0.037,1.361-0.094,1.814-0.17v-6.406c-0.34-0.075-0.851-0.15-1.531-0.227
			c-0.68-0.076-1.304-0.114-1.871-0.114c-0.793,0-1.54,0.048-2.239,0.143s-1.313,0.274-1.843,0.538
			c-0.529,0.265-0.944,0.624-1.247,1.077c-0.303,0.454-0.453,1.021-0.453,1.701c0,1.323,0.443,2.239,1.332,2.75
			C823.732,116.2,824.951,116.455,826.502,116.455z"/>
		<path fill="#3E5062" d="M864.43,100.014c-0.756-0.188-1.644-0.387-2.664-0.595s-2.117-0.313-3.288-0.313
			c-0.53,0-1.163,0.048-1.899,0.143c-0.737,0.095-1.296,0.198-1.673,0.312v22.791h-8.447V94.118c1.511-0.529,3.297-1.03,5.357-1.503
			c2.06-0.472,4.355-0.709,6.889-0.709c0.453,0,1.001,0.028,1.644,0.085c0.643,0.058,1.285,0.134,1.928,0.228
			c0.643,0.095,1.285,0.208,1.928,0.34c0.643,0.133,1.19,0.293,1.645,0.482L864.43,100.014z"/>
		<path fill="#3E5062" d="M879.624,83.913c0,1.55-0.502,2.769-1.503,3.656c-1.002,0.889-2.183,1.332-3.543,1.332
			s-2.542-0.443-3.544-1.332c-1.001-0.888-1.502-2.106-1.502-3.656s0.501-2.769,1.502-3.657c1.002-0.888,2.184-1.332,3.544-1.332
			s2.541,0.444,3.543,1.332C879.122,81.145,879.624,82.363,879.624,83.913z M878.83,122.352h-8.447V92.53h8.447V122.352z"/>
		<path fill="#3E5062" d="M900.09,85.104l8.447-1.361v8.788h10.148v7.03h-10.148v10.488c0,1.777,0.312,3.194,0.936,4.252
			c0.623,1.059,1.88,1.588,3.77,1.588c0.907,0,1.843-0.085,2.807-0.256c0.964-0.17,1.843-0.405,2.637-0.708l1.19,6.576
			c-1.021,0.417-2.154,0.775-3.401,1.077c-1.248,0.303-2.778,0.454-4.593,0.454c-2.306,0-4.215-0.313-5.727-0.936
			c-1.512-0.624-2.721-1.493-3.628-2.608c-0.907-1.114-1.541-2.466-1.899-4.054c-0.359-1.587-0.538-3.345-0.538-5.272V85.104z"/>
		<path fill="#3E5062" d="M934.786,83.913c0,1.55-0.502,2.769-1.503,3.656c-1.002,0.889-2.183,1.332-3.543,1.332
			s-2.542-0.443-3.544-1.332c-1.001-0.888-1.502-2.106-1.502-3.656s0.501-2.769,1.502-3.657c1.002-0.888,2.184-1.332,3.544-1.332
			s2.541,0.444,3.543,1.332C934.284,81.145,934.786,82.363,934.786,83.913z M933.992,122.352h-8.447V92.53h8.447V122.352z"/>
		<path fill="#3E5062" d="M968.234,121.388c-0.756,0.227-1.625,0.444-2.607,0.652c-0.983,0.208-2.013,0.387-3.09,0.538
			c-1.077,0.15-2.174,0.274-3.288,0.369c-1.115,0.094-2.183,0.142-3.203,0.142c-2.458,0-4.649-0.36-6.577-1.077
			c-1.928-0.718-3.553-1.748-4.876-3.09s-2.334-2.967-3.033-4.876c-0.699-1.908-1.049-4.054-1.049-6.435
			c0-2.419,0.303-4.602,0.907-6.549c0.604-1.946,1.475-3.6,2.608-4.961c1.134-1.36,2.522-2.399,4.167-3.118
			c1.645-0.717,3.523-1.077,5.641-1.077c1.172,0,2.221,0.114,3.146,0.341s1.861,0.548,2.807,0.964V79.718l8.447-1.361V121.388z
			 M949.129,107.214c0,2.608,0.585,4.706,1.758,6.293c1.171,1.588,2.909,2.382,5.216,2.382c0.755,0,1.454-0.028,2.098-0.085
			c0.642-0.057,1.171-0.123,1.587-0.199v-15.363c-0.529-0.341-1.219-0.624-2.069-0.851c-0.851-0.228-1.71-0.341-2.579-0.341
			C951.132,99.05,949.129,101.771,949.129,107.214z"/>
		<path fill="#3E5062" d="M986.886,91.736c2.495,0,4.573,0.284,6.236,0.851c1.663,0.567,2.995,1.38,3.997,2.438
			c1.001,1.059,1.71,2.345,2.126,3.855c0.416,1.513,0.624,3.194,0.624,5.046v17.575c-1.21,0.265-2.892,0.577-5.046,0.936
			s-4.763,0.539-7.824,0.539c-1.927,0-3.676-0.171-5.244-0.511s-2.92-0.897-4.054-1.673c-1.134-0.773-2.004-1.785-2.607-3.032
			c-0.605-1.248-0.907-2.778-0.907-4.593c0-1.738,0.349-3.212,1.049-4.422c0.699-1.209,1.635-2.173,2.807-2.892
			c1.171-0.718,2.513-1.237,4.025-1.56c1.511-0.32,3.08-0.481,4.705-0.481c1.096,0,2.069,0.048,2.92,0.142
			c0.851,0.095,1.54,0.218,2.069,0.368v-0.793c0-1.437-0.435-2.589-1.304-3.459c-0.87-0.869-2.382-1.304-4.536-1.304
			c-1.437,0-2.854,0.104-4.252,0.312c-1.398,0.209-2.607,0.502-3.628,0.879l-1.077-6.803c0.49-0.151,1.105-0.313,1.842-0.482
			c0.737-0.17,1.54-0.32,2.41-0.453c0.869-0.132,1.785-0.246,2.749-0.341C984.93,91.784,985.902,91.736,986.886,91.736z
			 M987.566,116.455c0.831,0,1.625-0.019,2.381-0.057c0.756-0.037,1.361-0.094,1.814-0.17v-6.406c-0.34-0.075-0.851-0.15-1.53-0.227
			c-0.681-0.076-1.305-0.114-1.871-0.114c-0.794,0-1.541,0.048-2.239,0.143c-0.7,0.095-1.314,0.274-1.843,0.538
			c-0.53,0.265-0.945,0.624-1.247,1.077c-0.304,0.454-0.454,1.021-0.454,1.701c0,1.323,0.444,2.239,1.332,2.75
			C984.797,116.2,986.016,116.455,987.566,116.455z"/>
		<path fill="#3E5062" d="M1015.97,103.239c0.831-0.901,1.689-1.841,2.577-2.817c0.887-0.978,1.746-1.945,2.577-2.903
			c0.831-0.959,1.613-1.869,2.35-2.733s1.369-1.615,1.897-2.255h10.045c-2.004,2.302-3.96,4.498-5.868,6.591
			c-1.909,2.093-3.997,4.252-6.265,6.478c1.134,1.022,2.305,2.243,3.516,3.663c1.209,1.42,2.381,2.887,3.515,4.401
			s2.173,3.028,3.118,4.543c0.944,1.515,1.738,2.896,2.381,4.146h-9.713c-0.604-0.985-1.293-2.074-2.065-3.268
			c-0.773-1.193-1.594-2.387-2.462-3.58s-1.782-2.34-2.745-3.438c-0.962-1.099-1.915-2.027-2.857-2.785v13.07h-8.447V79.718
			l8.447-1.361V103.239z"/>
		<path fill="#3E5062" d="M1064.67,91.736c2.495,0,4.573,0.284,6.236,0.851c1.663,0.567,2.995,1.38,3.997,2.438
			c1.001,1.059,1.71,2.345,2.126,3.855c0.416,1.513,0.624,3.194,0.624,5.046v17.575c-1.21,0.265-2.892,0.577-5.046,0.936
			s-4.763,0.539-7.824,0.539c-1.927,0-3.676-0.171-5.244-0.511s-2.92-0.897-4.054-1.673c-1.134-0.773-2.004-1.785-2.607-3.032
			c-0.605-1.248-0.907-2.778-0.907-4.593c0-1.738,0.349-3.212,1.049-4.422c0.699-1.209,1.635-2.173,2.807-2.892
			c1.171-0.718,2.513-1.237,4.025-1.56c1.511-0.32,3.08-0.481,4.705-0.481c1.096,0,2.069,0.048,2.92,0.142
			c0.851,0.095,1.54,0.218,2.069,0.368v-0.793c0-1.437-0.435-2.589-1.304-3.459c-0.87-0.869-2.382-1.304-4.536-1.304
			c-1.437,0-2.854,0.104-4.252,0.312c-1.398,0.209-2.607,0.502-3.628,0.879l-1.077-6.803c0.49-0.151,1.105-0.313,1.842-0.482
			c0.737-0.17,1.54-0.32,2.41-0.453c0.869-0.132,1.785-0.246,2.749-0.341C1062.714,91.784,1063.687,91.736,1064.67,91.736z
			 M1065.351,116.455c0.831,0,1.625-0.019,2.381-0.057c0.756-0.037,1.361-0.094,1.814-0.17v-6.406
			c-0.34-0.075-0.851-0.15-1.53-0.227c-0.681-0.076-1.305-0.114-1.871-0.114c-0.794,0-1.541,0.048-2.239,0.143
			c-0.7,0.095-1.314,0.274-1.843,0.538c-0.53,0.265-0.945,0.624-1.247,1.077c-0.304,0.454-0.454,1.021-0.454,1.701
			c0,1.323,0.444,2.239,1.332,2.75C1062.581,116.2,1063.8,116.455,1065.351,116.455z"/>
		<path fill="#3E5062" d="M1111.612,121.388c-0.756,0.227-1.625,0.444-2.607,0.652c-0.983,0.208-2.013,0.387-3.09,0.538
			c-1.077,0.15-2.174,0.274-3.288,0.369c-1.115,0.094-2.183,0.142-3.203,0.142c-2.458,0-4.649-0.36-6.577-1.077
			c-1.928-0.718-3.553-1.748-4.876-3.09s-2.334-2.967-3.033-4.876c-0.699-1.908-1.049-4.054-1.049-6.435
			c0-2.419,0.303-4.602,0.907-6.549c0.604-1.946,1.475-3.6,2.608-4.961c1.134-1.36,2.522-2.399,4.167-3.118
			c1.645-0.717,3.523-1.077,5.641-1.077c1.172,0,2.221,0.114,3.146,0.341s1.861,0.548,2.807,0.964V79.718l8.447-1.361V121.388z
			 M1092.507,107.214c0,2.608,0.585,4.706,1.758,6.293c1.171,1.588,2.909,2.382,5.216,2.382c0.755,0,1.454-0.028,2.098-0.085
			c0.642-0.057,1.171-0.123,1.587-0.199v-15.363c-0.529-0.341-1.219-0.624-2.069-0.851c-0.851-0.228-1.71-0.341-2.579-0.341
			C1094.51,99.05,1092.507,101.771,1092.507,107.214z"/>
		<path fill="#3E5062" d="M1130.264,91.736c2.495,0,4.573,0.284,6.236,0.851c1.663,0.567,2.995,1.38,3.997,2.438
			c1.001,1.059,1.71,2.345,2.126,3.855c0.416,1.513,0.624,3.194,0.624,5.046v17.575c-1.21,0.265-2.892,0.577-5.046,0.936
			s-4.763,0.539-7.824,0.539c-1.927,0-3.676-0.171-5.244-0.511s-2.92-0.897-4.054-1.673c-1.134-0.773-2.004-1.785-2.607-3.032
			c-0.605-1.248-0.907-2.778-0.907-4.593c0-1.738,0.349-3.212,1.049-4.422c0.699-1.209,1.635-2.173,2.807-2.892
			c1.171-0.718,2.513-1.237,4.025-1.56c1.511-0.32,3.08-0.481,4.705-0.481c1.096,0,2.069,0.048,2.92,0.142
			c0.851,0.095,1.54,0.218,2.069,0.368v-0.793c0-1.437-0.435-2.589-1.304-3.459c-0.87-0.869-2.382-1.304-4.536-1.304
			c-1.437,0-2.854,0.104-4.252,0.312c-1.398,0.209-2.607,0.502-3.628,0.879l-1.077-6.803c0.49-0.151,1.105-0.313,1.842-0.482
			c0.737-0.17,1.54-0.32,2.41-0.453c0.869-0.132,1.785-0.246,2.749-0.341C1128.308,91.784,1129.28,91.736,1130.264,91.736z
			 M1130.944,116.455c0.831,0,1.625-0.019,2.381-0.057c0.756-0.037,1.361-0.094,1.814-0.17v-6.406
			c-0.34-0.075-0.851-0.15-1.53-0.227c-0.681-0.076-1.305-0.114-1.871-0.114c-0.794,0-1.541,0.048-2.239,0.143
			c-0.7,0.095-1.314,0.274-1.843,0.538c-0.53,0.265-0.945,0.624-1.247,1.077c-0.304,0.454-0.454,1.021-0.454,1.701
			c0,1.323,0.444,2.239,1.332,2.75C1128.175,116.2,1129.394,116.455,1130.944,116.455z"/>
		<path fill="#3E5062" d="M1160.312,117.873c0,1.663-0.539,2.948-1.616,3.854c-1.077,0.907-2.296,1.361-3.656,1.361
			s-2.58-0.454-3.657-1.361c-1.077-0.906-1.615-2.191-1.615-3.854s0.538-2.948,1.615-3.855s2.297-1.36,3.657-1.36
			s2.579,0.453,3.656,1.36S1160.312,116.21,1160.312,117.873z M1159.574,93.211c0,3.062-0.113,5.915-0.34,8.561
			c-0.227,2.646-0.529,5.329-0.907,8.051h-6.463c-0.379-2.722-0.69-5.404-0.936-8.051c-0.246-2.646-0.368-5.499-0.368-8.561V83.063
			h9.014V93.211z"/>
	</g>
</g>
</svg>
