<?xml version="1.0" encoding="utf-8"?>
<!-- Generator: Adobe Illustrator 16.0.0, SVG Export Plug-In . SVG Version: 6.00 Build 0)  -->
<!DOCTYPE svg PUBLIC "-//W3C//DTD SVG 1.1//EN" "http://www.w3.org/Graphics/SVG/1.1/DTD/svg11.dtd">
<svg version="1.1" xmlns="http://www.w3.org/2000/svg" xmlns:xlink="http://www.w3.org/1999/xlink" x="0px" y="0px"
	 width="163.56px" height="171.011px" viewBox="0 0 163.56 171.011" enable-background="new 0 0 163.56 171.011"
	 xml:space="preserve">
<g id="Layer_1" display="none">
</g>
<g id="Source">
</g>
<g id="Layer_2">
	<ellipse fill="#EAEAEA" cx="82.099" cy="158.018" rx="73.741" ry="10.055"/>
	<path fill="#627282" d="M123.379,98.677c0,0,6.251,23.066,5.685,31.012s7.446,24.753,7.446,24.753s-15.68-9.504-33.714-6.479
		s-48.123,4.047-53.555,0.484s-24.831,5.994-24.831,5.994L39.35,98.008L123.379,98.677z"/>
	<path fill="#495560" d="M119.149,98.611c0,0,5.641,20.812,5.129,27.98c-0.511,7.169,6.719,22.332,6.719,22.332
		s-14.146-8.574-30.418-5.845s-43.419,3.651-48.319,0.437c-4.9-3.214-22.403,5.408-22.403,5.408l13.479-50.916L119.149,98.611z"/>
	<g>
		<g>
			<polygon fill="#B5B4B9" points="145.728,80.978 135.009,24.611 140.369,6.58 150.352,22.701 152.61,79.601 			"/>
			<path fill="#9F9EA8" d="M141.415,14.645c0,0,0.185,0.963,0.472,2.652c0.271,1.691,0.701,4.103,1.141,7.006
				c0.451,2.901,0.944,6.29,1.439,9.926c0.242,1.817,0.492,3.696,0.746,5.605c0.241,1.911,0.485,3.852,0.729,5.793
				c0.227,1.943,0.453,3.887,0.677,5.8c0.231,1.911,0.414,3.799,0.615,5.622c0.389,3.647,0.719,7.057,0.973,9.981
				c0.269,2.924,0.424,5.368,0.564,7.076c0.125,1.709,0.176,2.688,0.176,2.688s-0.186-0.963-0.473-2.652
				c-0.271-1.691-0.704-4.103-1.142-7.006c-0.452-2.901-0.945-6.29-1.44-9.926c-0.239-1.818-0.513-3.694-0.744-5.606
				c-0.241-1.911-0.484-3.852-0.729-5.793c-0.227-1.942-0.453-3.887-0.676-5.8c-0.209-1.914-0.415-3.798-0.615-5.622
				c-0.387-3.648-0.718-7.057-0.972-9.982c-0.268-2.923-0.425-5.367-0.566-7.074C141.466,15.623,141.415,14.645,141.415,14.645z"/>
			<path fill="#EED42C" d="M143.621,90.126c0,0,1.438-4.604,3.069-4.411c1.63,0.191,2.109,0.767,2.109,0.767s3.837-1.63,6.33-0.191
				c2.494,1.438,2.206,3.645,1.727,4.412c0,0,1.412,1.915,0.322,4.122c0,0,1.788,3.071-3.199,3.742
				c-4.987,0.672-7.865-0.096-10.358-1.918l-12.469,2.781l-15.346-4.605l1.343-6.712l14.962,4.451L143.621,90.126z"/>
			<g>
				<path fill="#E0BF20" d="M148.022,93.71c-0.878,0-1.538-0.342-1.864-0.97c-0.805-1.549-1.124-2.164-0.891-2.945l0.735,0.22
					c-0.139,0.463,0.067,0.892,0.804,2.31c0.281,0.542,0.837,0.636,1.286,0.618c1.007-0.026,2.069-0.6,2.276-1.057
					c0.248-0.546-0.797-3.136-1.907-5.224l0.677-0.36c0.583,1.097,2.446,4.763,1.929,5.901c-0.393,0.865-1.845,1.478-2.954,1.506
					C148.082,93.71,148.053,93.71,148.022,93.71z"/>
			</g>
			<g>
				<path fill="#E0BF20" d="M156.729,91.063c-0.037-0.013-3.65-1.269-6.31-0.781l-0.138-0.755c2.865-0.521,6.547,0.757,6.702,0.813
					L156.729,91.063z"/>
			</g>
			<g>
				<path fill="#E0BF20" d="M151.582,99.148c-0.31-0.089-3.034-0.879-3.65-1.246c-1.04-0.622-1.413-2.689-1.283-3.943
					c0.069-0.671,0.28-1.07,0.628-1.19c0.188-0.066,0.486-0.07,0.825,0.28c1.465,1.519,7.032,1.52,9.054,1.393l0.048,0.766
					c-0.312,0.02-7.646,0.457-9.653-1.626c-0.013-0.012-0.022-0.022-0.032-0.031c-0.092,0.211-0.183,0.778-0.083,1.602
					c0.125,1.022,0.475,1.843,0.892,2.093c0.401,0.24,2.294,0.829,3.468,1.167L151.582,99.148z"/>
			</g>
			<path fill="#844D1A" d="M148.129,97.573l1.022,6.716l4.452-0.511v-6.205C153.604,97.573,151.71,99.425,148.129,97.573z"/>
			<polygon fill="#6B3A11" points="149.151,104.289 153.604,103.778 153.604,106.591 149.663,107.358 			"/>
			<path fill="#627282" d="M160.93,84.488c0.103,1.316-4.553,2.753-10.396,3.209c-5.845,0.457-10.666-0.242-10.769-1.561
				c-0.104-1.316,4.552-1.986,10.396-2.441C156.006,83.238,160.826,83.17,160.93,84.488z"/>
			<path fill="#8D8C93" d="M154.023,82.787c0.093,1.125-0.64,2.124-1.637,2.229l-5.623,0.593c-0.998,0.105-1.882-0.723-1.976-1.849
				l-0.205-2.489c-0.093-1.126,0.64-2.124,1.637-2.229l5.623-0.594c0.998-0.104,1.882,0.723,1.975,1.849L154.023,82.787z"/>
			<path fill="#9F9EA8" d="M152.834,82.602c0.069,0.839-0.477,1.582-1.22,1.661l-4.188,0.441c-0.743,0.078-1.401-0.538-1.471-1.376
				l-0.154-1.854c-0.068-0.84,0.478-1.582,1.221-1.661l4.188-0.442c0.743-0.077,1.401,0.538,1.471,1.377L152.834,82.602z"/>
		</g>
		<path fill="#EED42C" d="M71.928,117.585l-12.979,18.544c0,0,9.488,24.103,8.221,24.447c-1.267,0.349-20.852,2.666-21.198,2.666
			s-5.911,0.466-3.245-4.171c0,0-1.623,3.015-3.823,1.16c-2.203-1.854,0.811-4.753,0.811-4.753s-2.025,2.938-3.895,1.525
			c-2.015-1.525,3.316-6.625,8.065-6.275c4.753,0.346,8.809,3.013,13.212,3.013c0,0-0.696-11.473-1.97-15.296
			c-1.276-3.824,0.347-6.489,0.811-8.923c0.463-2.434,4.055-13.208,4.055-13.208L71.928,117.585z"/>
		<path fill="#E0BF20" d="M39.052,157.233c0,0,0.26-0.089,0.564-0.282c0.155-0.095,0.322-0.213,0.487-0.356
			c0.162-0.145,0.306-0.336,0.481-0.487c0.175-0.157,0.358-0.298,0.533-0.429c0.177-0.127,0.349-0.236,0.505-0.318
			c0.076-0.041,0.152-0.066,0.218-0.095c0.064-0.032,0.125-0.045,0.173-0.062c0.101-0.029,0.158-0.047,0.158-0.047l-0.006-0.061
			c0,0-0.061,0-0.169,0c-0.053,0-0.123-0.001-0.197,0.015c-0.072,0.014-0.161,0.022-0.251,0.045
			c-0.185,0.045-0.396,0.111-0.608,0.209c-0.104,0.05-0.223,0.096-0.327,0.157c-0.106,0.063-0.216,0.122-0.32,0.191
			c-0.212,0.131-0.435,0.251-0.614,0.401c-0.175,0.155-0.31,0.326-0.411,0.488c-0.208,0.314-0.262,0.59-0.262,0.59L39.052,157.233z"
			/>
		<path fill="#E0BF20" d="M42.739,160.034c0,0,0.323-0.009,0.748-0.121c0.213-0.053,0.456-0.13,0.705-0.237
			c0.245-0.111,0.492-0.268,0.755-0.389c0.259-0.126,0.522-0.249,0.771-0.351c0.25-0.104,0.481-0.199,0.688-0.268
			c0.104-0.037,0.195-0.064,0.28-0.086s0.158-0.046,0.22-0.054c0.126-0.022,0.196-0.037,0.196-0.037v-0.062
			c0,0-0.074-0.003-0.205-0.009c-0.067-0.007-0.146,0-0.235,0.005c-0.092,0.004-0.194,0.012-0.305,0.028
			c-0.223,0.027-0.481,0.071-0.75,0.142c-0.273,0.064-0.558,0.146-0.842,0.229c-0.141,0.041-0.283,0.086-0.424,0.126
			c-0.14,0.042-0.276,0.086-0.406,0.138c-0.253,0.111-0.475,0.246-0.656,0.376c-0.367,0.257-0.57,0.514-0.57,0.514L42.739,160.034z"
			/>
		<path fill="#EED42C" d="M86.45,118.52l12.979,18.543c0,0-0.139,24.103,1.128,24.449c1.268,0.348,20.851,2.665,21.199,2.665
			c0.348,0,5.908,0.465,3.243-4.17c0,0,1.624,3.013,3.825,1.158c2.203-1.854-0.813-4.752-0.813-4.752s2.026,2.938,3.896,1.524
			c2.015-1.524-3.316-6.623-8.067-6.273c-4.748,0.344-8.805,3.012-13.21,3.012c0,0-4.731-11.6-4.885-15.296
			c-0.166-4.027-2.841-6.489-3.303-8.923c-0.464-2.435-4.056-13.208-4.056-13.208L86.45,118.52z"/>
		<g>
			<path fill="#DED7D5" d="M100.323,43.912c-0.62-8.465-3.739-28.148-19.356-28.124c-4.46,0.006-18.034,0.025-19.322,28.042
				l-11.818-0.543C51.4,9.105,70.001,3.974,80.949,3.957c10.47-0.016,18.918,5.063,24.438,14.694
				c4.693,8.192,6.252,17.792,6.735,24.398L100.323,43.912z"/>
		</g>
		<path fill="#EED42C" d="M123.035,119.559c0.007,3.135-2.532,5.68-5.667,5.687l-72.536,0.111c-3.138,0.004-5.682-2.534-5.688-5.669
			l-0.111-72.535c-0.003-3.138,2.533-5.684,5.671-5.688l72.534-0.109c3.138-0.007,5.682,2.533,5.69,5.668L123.035,119.559z"/>
		<path fill="#FCEDAE" d="M104.599,46.573c2.304-0.133,4.608-0.232,6.916-0.314c1.149-0.047,2.303-0.08,3.455-0.112l3.456-0.096
			l0.494-0.016l0.009,0.515c0.04,2.144,0.105,4.29,0.123,6.434c0.029,2.142,0.075,4.286,0.078,6.431l0.037,6.432l-0.019,6.432
			l-0.063,6.433l-0.116,6.434c-0.061,2.145-0.104,4.288-0.188,6.432c-0.068,2.142-0.162,4.289-0.277,6.433
			c-0.12-2.145-0.22-4.288-0.296-6.432c-0.086-2.145-0.138-4.289-0.205-6.433l-0.134-6.431l-0.085-6.432l-0.037-6.433l0.015-6.432
			c-0.001-2.144,0.038-4.289,0.057-6.434c0.015-2.142,0.073-4.288,0.108-6.434l0.501,0.505l-3.458-0.089
			c-1.151-0.028-2.306-0.06-3.457-0.102C109.207,46.79,106.904,46.696,104.599,46.573z"/>
		<g>
			<path fill="#F7F0F2" d="M109.131,38.316c-0.464,0.001-0.87-0.342-0.936-0.815c-3.804-27.369-22.812-30.065-23.003-30.09
				c-0.518-0.064-0.885-0.537-0.821-1.057c0.064-0.518,0.541-0.889,1.058-0.821c0.213,0.026,5.286,0.705,10.887,4.986
				c5.125,3.914,11.671,11.729,13.754,26.718c0.072,0.521-0.289,0.997-0.805,1.069C109.218,38.313,109.174,38.316,109.131,38.316z"
				/>
		</g>
		<g>
			<path fill="#EED42C" d="M40.22,86.419c0,0-16.646,20.083-16.143,21.711c0.505,1.628,4.859,27.247,9.843,28.719
				c0,0,2.155,0.045,4.042,0.995c1.885,0.953,4.188-1.256,4.606-2.3c0,0,1.114,1.497,1.991,0.975
				c0.876-0.517,4.344-4.163,0.86-8.751l-2.431-0.051c0,0,1.297-4.955-1.116-6.95c0,0-4.421-0.286-9.012,2.458
				c0,0-2.559-9.6-2.09-13.076c0,0,8.497-14.764,10.375-15.1"/>
			<path fill="#E0BF20" d="M41.929,125.274c0,0,0.146,0.292,0.359,0.72c0.106,0.217,0.23,0.471,0.36,0.737
				c0.135,0.269,0.271,0.557,0.421,0.835c0.287,0.565,0.6,1.117,0.874,1.503c0.062,0.101,0.134,0.18,0.191,0.261
				c0.057,0.081,0.11,0.143,0.161,0.192c0.094,0.103,0.148,0.166,0.148,0.166s-0.07-0.041-0.19-0.117
				c-0.062-0.037-0.134-0.089-0.207-0.157c-0.073-0.063-0.171-0.131-0.249-0.224c-0.084-0.09-0.184-0.185-0.266-0.295
				c-0.086-0.11-0.186-0.226-0.267-0.355c-0.084-0.128-0.178-0.255-0.254-0.398c-0.082-0.138-0.162-0.278-0.236-0.424
				c-0.298-0.579-0.527-1.186-0.661-1.655c-0.069-0.23-0.112-0.43-0.146-0.568C41.938,125.355,41.929,125.274,41.929,125.274z"/>
			<path fill="#E0BF20" d="M42.313,136.002c0,0-0.157-0.418-0.338-0.844c-0.185-0.424-0.41-1.001-0.604-1.586
				c-0.107-0.289-0.175-0.593-0.26-0.867c-0.077-0.279-0.112-0.55-0.157-0.772c-0.046-0.229-0.029-0.426-0.042-0.558
				c-0.006-0.134-0.01-0.21-0.01-0.21s0.01,0.075,0.028,0.21c0.025,0.131,0.024,0.322,0.086,0.545
				c0.069,0.219,0.124,0.478,0.228,0.745c0.105,0.267,0.194,0.555,0.328,0.83c0.24,0.56,0.512,1.105,0.73,1.506
				c0.211,0.402,0.365,0.662,0.365,0.662L42.313,136.002z"/>
			<path fill="#E0BF20" d="M36.832,137.312c-0.197-0.252-0.45-0.599-0.682-0.958c-0.121-0.176-0.216-0.37-0.317-0.541
				c-0.102-0.173-0.163-0.354-0.231-0.498c-0.064-0.146-0.08-0.283-0.106-0.369c-0.023-0.092-0.039-0.144-0.039-0.144
				s0.02,0.051,0.054,0.137c0.039,0.087,0.068,0.216,0.147,0.352c0.082,0.136,0.162,0.303,0.278,0.459
				c0.119,0.156,0.232,0.333,0.373,0.492c0.263,0.325,0.55,0.634,0.77,0.856s0.394,0.488,0.394,0.488S36.996,137.45,36.832,137.312z
				"/>
		</g>
		<path fill="#E0BF20" d="M128.674,157.233c0,0-0.26-0.089-0.563-0.282c-0.156-0.095-0.324-0.213-0.487-0.356
			c-0.161-0.145-0.305-0.336-0.483-0.487c-0.172-0.157-0.358-0.298-0.532-0.429c-0.177-0.127-0.349-0.236-0.503-0.318
			c-0.078-0.041-0.154-0.066-0.22-0.095c-0.063-0.032-0.124-0.045-0.173-0.062c-0.102-0.029-0.158-0.047-0.158-0.047l0.006-0.061
			c0,0,0.061,0,0.168,0c0.056,0,0.122-0.001,0.197,0.015c0.072,0.014,0.163,0.022,0.252,0.045c0.184,0.045,0.395,0.111,0.611,0.209
			c0.104,0.05,0.219,0.096,0.322,0.157c0.108,0.063,0.218,0.122,0.32,0.191c0.215,0.131,0.437,0.251,0.614,0.401
			c0.178,0.155,0.313,0.326,0.412,0.488c0.207,0.314,0.263,0.59,0.263,0.59L128.674,157.233z"/>
		<path fill="#E0BF20" d="M124.985,160.034c0,0-0.32-0.009-0.747-0.121c-0.214-0.053-0.458-0.13-0.704-0.237
			c-0.247-0.111-0.494-0.268-0.755-0.389c-0.261-0.126-0.522-0.249-0.771-0.351c-0.25-0.104-0.485-0.199-0.688-0.268
			c-0.102-0.037-0.197-0.064-0.282-0.086c-0.084-0.021-0.157-0.046-0.22-0.054c-0.126-0.022-0.195-0.037-0.195-0.037v-0.062
			c0,0,0.074-0.003,0.204-0.009c0.068-0.007,0.146,0,0.237,0.005c0.09,0.004,0.194,0.012,0.306,0.028
			c0.221,0.027,0.479,0.071,0.75,0.142c0.271,0.064,0.555,0.146,0.839,0.229c0.142,0.041,0.284,0.086,0.424,0.126
			c0.143,0.042,0.28,0.086,0.407,0.138c0.252,0.111,0.476,0.246,0.657,0.376c0.368,0.257,0.568,0.514,0.568,0.514L124.985,160.034z"
			/>
		<g>
			<path fill="#D1AE19" d="M63.014,97.144c0,0,0.129,0.126,0.35,0.37c0.229,0.236,0.524,0.621,0.882,1.102
				c0.345,0.507,0.687,1.112,0.985,1.892c0.322,0.838,0.924,1.826,1.923,2.53c0.982,0.735,2.396,1.118,3.786,0.979
				c0.355-0.01,0.688-0.099,1.04-0.16c0.341-0.082,0.679-0.185,1.018-0.295c0.318-0.126,0.672-0.256,0.975-0.395
				c0.292-0.133,0.59-0.268,0.892-0.404c1.2-0.55,2.407-1.111,3.64-1.598c1.234-0.482,2.485-0.897,3.772-1.146
				c1.281-0.268,2.586-0.378,3.886-0.383c0.325,0.009,0.649,0.02,0.972,0.027c0.325,0.014,0.646,0.045,0.967,0.063l0.239,0.018
				l0.062,0.004c-0.011-0.002,0.032,0.005,0.046,0.006l0.127,0.013l0.495,0.058c0.315,0.044,0.626,0.086,0.935,0.13
				c1.261,0.188,2.484,0.452,3.73,0.643c0.625,0.088,1.252,0.166,1.909,0.146c0.652-0.021,1.351-0.146,1.953-0.481
				c0.603-0.336,1.026-0.843,1.298-1.322c0.28-0.487,0.421-0.965,0.549-1.401c0.231-0.883,0.297-1.646,0.334-2.271
				c0.044-0.625,0.035-1.114,0.029-1.448c-0.011-0.332-0.014-0.509-0.014-0.509s-0.047,0.17-0.133,0.492
				c-0.078,0.321-0.216,0.789-0.389,1.375c-0.17,0.585-0.417,1.287-0.755,2.022c-0.348,0.72-0.87,1.478-1.573,1.716
				c-0.694,0.256-1.705,0.082-2.824-0.22c-1.119-0.3-2.354-0.691-3.686-0.989c-0.331-0.076-0.677-0.151-1.029-0.216l-0.498-0.086
				l-0.125-0.018l-0.146-0.022L88.37,97.33c-0.354-0.042-0.71-0.096-1.068-0.129c-0.361-0.022-0.726-0.044-1.09-0.067
				c-1.467-0.056-2.977,0.065-4.45,0.359c-1.473,0.3-2.896,0.78-4.216,1.362c-1.322,0.574-2.553,1.234-3.703,1.865
				c-0.289,0.157-0.574,0.314-0.857,0.472c-0.263,0.136-0.521,0.266-0.777,0.398c-0.256,0.109-0.51,0.216-0.763,0.307
				c-0.256,0.065-0.509,0.167-0.759,0.2c-0.999,0.212-1.952,0.088-2.745-0.323c-0.401-0.191-0.752-0.462-1.058-0.757
				c-0.162-0.139-0.297-0.307-0.424-0.456c-0.061-0.076-0.12-0.151-0.179-0.227c-0.062-0.093-0.12-0.185-0.177-0.275
				c-0.455-0.763-1.017-1.361-1.479-1.783c-0.479-0.417-0.884-0.699-1.17-0.875C63.174,97.22,63.014,97.144,63.014,97.144z"/>
			<path fill="#D1AE19" d="M97.712,92.541c0,0,0.328,0.204,0.811,0.446c0.24,0.125,0.519,0.263,0.814,0.402
				c0.294,0.146,0.607,0.289,0.908,0.446c0.307,0.149,0.597,0.315,0.867,0.472c0.14,0.075,0.255,0.168,0.381,0.241
				c0.117,0.082,0.22,0.166,0.328,0.24c0.098,0.08,0.177,0.164,0.262,0.232c0.083,0.07,0.138,0.143,0.192,0.202
				c0.104,0.118,0.177,0.191,0.177,0.191s-0.002-0.092-0.022-0.263c-0.014-0.082-0.018-0.193-0.068-0.302
				c-0.04-0.107-0.082-0.246-0.157-0.372c-0.078-0.122-0.16-0.269-0.267-0.4c-0.112-0.121-0.228-0.265-0.366-0.381
				c-0.141-0.115-0.283-0.246-0.445-0.342c-0.156-0.105-0.323-0.203-0.493-0.286c-0.683-0.343-1.416-0.52-1.978-0.557
				C98.096,92.463,97.712,92.543,97.712,92.541z"/>
			<path fill="#D1AE19" d="M60.24,100.092c0,0,0.09-0.117,0.26-0.31c0.163-0.192,0.404-0.461,0.695-0.773
				c0.146-0.154,0.305-0.32,0.478-0.489c0.164-0.177,0.363-0.335,0.548-0.518c0.191-0.177,0.405-0.339,0.612-0.512
				c0.223-0.154,0.428-0.34,0.665-0.479l0.337-0.225c0.117-0.071,0.238-0.131,0.354-0.197c0.12-0.062,0.231-0.136,0.35-0.193
				c0.119-0.056,0.24-0.108,0.356-0.162c0.229-0.114,0.466-0.194,0.688-0.272c0.111-0.042,0.222-0.081,0.327-0.12
				c0.11-0.027,0.215-0.055,0.314-0.082c0.205-0.046,0.392-0.115,0.562-0.148c0.171-0.026,0.321-0.058,0.447-0.081
				c0.249-0.052,0.396-0.09,0.396-0.09s-0.143-0.034-0.396-0.08c-0.128-0.024-0.284-0.054-0.467-0.077
				c-0.181-0.023-0.384-0.015-0.61-0.012c-0.115,0.002-0.233,0.003-0.355,0.006c-0.121,0.017-0.245,0.041-0.374,0.061
				c-0.255,0.043-0.532,0.084-0.798,0.188c-0.272,0.087-0.557,0.178-0.82,0.323c-0.136,0.067-0.275,0.127-0.406,0.205l-0.384,0.245
				c-0.263,0.159-0.487,0.366-0.718,0.553c-0.226,0.199-0.427,0.411-0.614,0.619c-0.188,0.212-0.359,0.425-0.503,0.639
				c-0.155,0.205-0.275,0.415-0.386,0.61C60.354,99.497,60.24,100.092,60.24,100.092z"/>
			<path fill="#D1AE19" d="M90.182,101.755c0,0-0.091,0.081-0.245,0.223c-0.15,0.144-0.366,0.348-0.608,0.6
				c-0.241,0.257-0.528,0.547-0.806,0.875c-0.142,0.164-0.302,0.322-0.446,0.495c-0.152,0.167-0.291,0.352-0.447,0.521
				c-0.148,0.173-0.302,0.345-0.442,0.519c-0.147,0.171-0.275,0.356-0.423,0.512c-0.146,0.159-0.271,0.323-0.396,0.48
				c-0.129,0.148-0.233,0.313-0.35,0.439c-0.451,0.521-0.718,0.939-0.718,0.939s0.442-0.188,1.051-0.576
				c0.159-0.092,0.307-0.217,0.464-0.345c0.16-0.128,0.331-0.263,0.495-0.413c0.341-0.29,0.654-0.648,0.973-0.998
				c0.307-0.362,0.587-0.745,0.836-1.113c0.124-0.184,0.232-0.372,0.336-0.546c0.109-0.17,0.198-0.344,0.275-0.505
				C90.059,102.229,90.182,101.755,90.182,101.755z"/>
		</g>
		<g>
			<circle opacity="0.2" fill="#1E1E1E" cx="81.298" cy="67.688" r="13.641"/>
			<path fill="#F2F0F1" d="M67.896,66.143c-0.22,7.53,5.705,13.813,13.235,14.031c7.532,0.219,13.813-5.709,14.031-13.237
				c0.22-7.532-5.706-13.813-13.237-14.032C74.395,52.685,68.111,58.614,67.896,66.143z"/>
			<path fill="#EFD42F" d="M78.565,64.906c0.939,0.028,1.726-0.855,1.758-1.973c0.024-0.796-0.351-1.479-0.905-1.826
				c0.533-0.329,1.113-0.515,1.726-0.495c2.294,0.066,4.075,2.806,3.979,6.12c-0.042,1.466-0.459,2.78-1.094,3.804
				c-0.205-0.417-0.565-0.718-1.005-0.73c-0.674-0.02-1.244,0.618-1.269,1.422c-0.011,0.429,0.14,0.807,0.375,1.082
				c-0.424,0.193-0.869,0.314-1.335,0.302c-2.296-0.066-4.075-2.81-3.979-6.122c0.025-0.876,0.184-1.696,0.44-2.439
				C77.552,64.543,78.012,64.892,78.565,64.906z"/>
			<path fill="#1E1C1D" d="M78.565,64.906c0.939,0.028,1.726-0.855,1.758-1.973c0.005-0.147-0.036-0.278-0.058-0.422
				c0.365-0.184,0.759-0.292,1.169-0.278c1.777,0.052,3.159,2.103,3.088,4.584c-0.035,1.228-0.422,2.327-1.019,3.119
				c-0.146-0.077-0.31-0.125-0.479-0.131c-0.65-0.018-1.189,0.576-1.25,1.339c-0.195,0.047-0.397,0.073-0.602,0.066
				c-1.775-0.051-3.157-2.102-3.086-4.582c0.019-0.631,0.131-1.227,0.315-1.766C78.458,64.873,78.506,64.905,78.565,64.906z"/>
		</g>
		<g>
			<path fill="#3E5062" d="M37.473,153.595c0,0-32.096-12.287-32.096-59.623c0,0,7.142,3.453,15.48,1.926
				c11.939-2.188,16.615-9.247,16.615-9.247s6.981,6.795,16.498,9.04c8.325,1.965,15.597-1.719,15.597-1.719
				C69.567,143.145,37.473,153.595,37.473,153.595z"/>
			<path fill="#273947" d="M37.436,155.054l-0.455-0.175c-0.341-0.13-8.431-3.296-16.583-12.429C12.917,134.07,4,118.858,4,93.972
				v-2.194l1.977,0.955c0.042,0.021,4.607,2.179,10.503,2.179c1.409,0,2.799-0.124,4.13-0.367
				c11.153-2.043,15.674-8.593,15.719-8.658l0.918-1.365l1.185,1.142c0.067,0.065,6.842,6.563,15.856,8.689
				c1.519,0.357,3.114,0.539,4.744,0.539c5.611,0,9.871-2.126,9.914-2.147l1.999-1.012v2.24c0,25.844-8.924,41.01-16.409,49.182
				c-8.175,8.923-16.296,11.639-16.637,11.75L37.436,155.054z M6.774,96.006c0.464,22.73,8.664,36.711,15.574,44.497
				c6.645,7.484,13.371,10.812,15.159,11.61c1.792-0.703,8.493-3.672,15.109-10.942c6.905-7.589,15.101-21.528,15.554-45.136
				c-1.98,0.709-5.261,1.608-9.14,1.608c-1.842,0-3.651-0.207-5.377-0.613c-7.636-1.801-13.621-6.344-16.017-8.384
				c-1.985,2.24-7.097,6.876-16.533,8.604c-1.494,0.274-3.051,0.412-4.625,0.412C12.337,97.663,8.839,96.724,6.774,96.006z"/>
			<path fill="#CED4D8" d="M37.491,148.034c0,0-25.76-9.86-25.76-47.852c0,0,5.732,2.771,12.424,1.546
				c9.583-1.756,13.336-7.423,13.336-7.423s5.603,5.454,13.241,7.257c6.683,1.576,12.518-1.38,12.518-1.38
				C63.25,139.648,37.491,148.034,37.491,148.034z"/>
			<path fill="#C2CACE" d="M50.732,101.563c-7.639-1.803-13.241-7.257-13.241-7.257s-0.013,0.02-0.019,0.027v53.693
				c0.012,0.005,0.019,0.008,0.019,0.008s25.759-8.386,25.759-47.852C63.25,100.183,57.415,103.139,50.732,101.563z"/>
			<path fill="#21323D" d="M59.031,94.891c-1.63,0-3.226-0.182-4.744-0.539c-9.015-2.127-15.789-8.624-15.856-8.689l-0.939-0.905
				v4.05c0.048-0.053,0.103-0.11,0.146-0.16c2.396,2.04,8.381,6.583,16.017,8.384c1.726,0.406,3.535,0.613,5.377,0.613
				c3.879,0,7.159-0.899,9.14-1.608c-0.453,23.607-8.648,37.547-15.554,45.136c-6.616,7.271-13.317,10.239-15.109,10.942
				c-0.004-0.002-0.013-0.005-0.017-0.007v2.929l0.407-0.132c0.341-0.111,8.462-2.827,16.637-11.75
				c7.485-8.172,16.409-23.338,16.409-49.182v-2.24l-1.999,1.012C68.902,92.765,64.643,94.891,59.031,94.891z"/>
			<g>
				<polygon fill="#21323D" points="35.719,134.815 27.856,119.093 31.552,117.246 36.555,127.254 49.551,108.83 52.751,111.439 
									"/>
			</g>
		</g>
	</g>
</g>
<g id="_x34_04">
</g>
<g id="Gbr_Blog" display="none">
</g>
<g id="Layer_6">
</g>
</svg>
