<?xml version="1.0" encoding="utf-8"?>
<!-- Generator: Adobe Illustrator 16.0.0, SVG Export Plug-In . SVG Version: 6.00 Build 0)  -->
<!DOCTYPE svg PUBLIC "-//W3C//DTD SVG 1.1//EN" "http://www.w3.org/Graphics/SVG/1.1/DTD/svg11.dtd">
<svg version="1.1" xmlns="http://www.w3.org/2000/svg" xmlns:xlink="http://www.w3.org/1999/xlink" x="0px" y="0px"
	 width="145.264px" height="171.011px" viewBox="0 0 145.264 171.011" enable-background="new 0 0 145.264 171.011"
	 xml:space="preserve">
<g id="Layer_1" display="none">
</g>
<g id="Source">
</g>
<g id="Layer_2">
	<ellipse fill="#EAEAEA" cx="73.818" cy="158.018" rx="62.413" ry="10.055"/>
	<g>
		<path fill="#EED42C" d="M65.771,117.614l-13.068,18.67c0,0,9.555,24.268,8.277,24.616c-1.275,0.351-20.994,2.684-21.344,2.684
			s-5.951,0.468-3.267-4.199c0,0-1.634,3.034-3.851,1.167c-2.218-1.867,0.816-4.784,0.816-4.784s-2.038,2.957-3.921,1.534
			c-2.029-1.534,3.338-6.668,8.121-6.317c4.784,0.349,8.867,3.033,13.302,3.033c0,0-0.701-11.551-1.983-15.4
			c-1.284-3.851,0.35-6.533,0.816-8.984c0.466-2.45,4.083-13.299,4.083-13.299L65.771,117.614z"/>
		<path fill="#E0BF20" d="M32.672,156.594c0,0,0.261-0.09,0.567-0.285c0.155-0.096,0.325-0.214,0.49-0.358
			c0.163-0.146,0.308-0.339,0.485-0.491c0.175-0.158,0.36-0.3,0.537-0.432c0.177-0.128,0.351-0.236,0.508-0.319
			c0.078-0.042,0.152-0.067,0.218-0.097c0.066-0.032,0.127-0.046,0.176-0.062c0.102-0.029,0.159-0.047,0.159-0.047l-0.006-0.062
			c0,0-0.062,0-0.17,0c-0.055,0-0.124-0.001-0.198,0.016c-0.074,0.013-0.163,0.021-0.254,0.045
			c-0.186,0.045-0.397,0.111-0.612,0.209c-0.105,0.051-0.224,0.098-0.329,0.16c-0.106,0.063-0.218,0.122-0.323,0.191
			c-0.213,0.132-0.438,0.253-0.618,0.403c-0.175,0.157-0.312,0.33-0.414,0.491c-0.208,0.319-0.263,0.596-0.263,0.596L32.672,156.594
			z"/>
		<path fill="#E0BF20" d="M36.384,159.413c0,0,0.324-0.009,0.752-0.123c0.216-0.053,0.46-0.129,0.71-0.237
			c0.248-0.113,0.496-0.27,0.761-0.393c0.261-0.127,0.525-0.25,0.776-0.353c0.252-0.105,0.486-0.2,0.694-0.269
			c0.103-0.038,0.196-0.066,0.282-0.087c0.084-0.021,0.158-0.047,0.222-0.055c0.125-0.022,0.196-0.037,0.196-0.037v-0.062
			c0,0-0.074-0.003-0.206-0.01c-0.067-0.007-0.146,0-0.237,0.006c-0.093,0.004-0.195,0.012-0.307,0.029
			c-0.225,0.026-0.484,0.071-0.756,0.141c-0.273,0.064-0.561,0.147-0.847,0.231c-0.144,0.042-0.285,0.086-0.427,0.128
			c-0.141,0.041-0.279,0.086-0.409,0.138c-0.254,0.112-0.479,0.247-0.661,0.379c-0.369,0.259-0.572,0.517-0.572,0.517
			L36.384,159.413z"/>
		<path fill="#EED42C" d="M80.395,117.614l13.067,18.67c0,0-9.552,24.268-8.276,24.616c1.275,0.351,20.994,2.684,21.344,2.684
			c0.351,0,5.95,0.468,3.267-4.199c0,0,1.634,3.034,3.851,1.167s-0.817-4.784-0.817-4.784s2.039,2.957,3.922,1.534
			c2.028-1.534-3.339-6.668-8.122-6.317c-4.782,0.349-8.867,3.033-13.302,3.033c0,0,0.702-11.551,1.984-15.4
			c1.283-3.851-0.35-6.533-0.815-8.984c-0.467-2.45-4.085-13.299-4.085-13.299L80.395,117.614z"/>
		<g>
			<path fill="#DED7D5" d="M86.069,41.507c-1.095-8.475-5.329-28.089-21.028-27.192c-4.483,0.255-18.128,1.032-17.859,29.27
				L35.27,43.695C34.945,9.246,53.357,3.049,64.363,2.421c10.523-0.6,19.301,4.036,25.388,13.409
				c5.175,7.973,7.278,17.535,8.133,24.152L86.069,41.507z"/>
		</g>
		<path fill="#EED42C" d="M113.125,116.286c0.182,3.151-2.229,5.853-5.382,6.034l-72.913,4.16c-3.153,0.18-5.854-2.23-6.035-5.383
			l-4.159-72.912c-0.179-3.154,2.229-5.855,5.384-6.035l72.912-4.159c3.152-0.182,5.854,2.229,6.036,5.382L113.125,116.286z"/>
		<path fill="#FCEDAE" d="M90.517,43.943c2.309-0.261,4.619-0.49,6.935-0.702c1.153-0.11,2.311-0.209,3.467-0.306l3.471-0.29
			l0.494-0.042l0.038,0.518c0.161,2.152,0.346,4.305,0.484,6.459c0.147,2.152,0.313,4.306,0.437,6.461l0.396,6.465l0.341,6.466
			l0.295,6.47l0.243,6.476c0.058,2.159,0.134,4.315,0.17,6.476c0.052,2.158,0.077,4.32,0.08,6.482
			c-0.24-2.149-0.459-4.3-0.656-6.449c-0.206-2.15-0.378-4.304-0.564-6.455l-0.496-6.458l-0.442-6.461l-0.396-6.464l-0.346-6.466
			c-0.121-2.157-0.201-4.315-0.302-6.472c-0.105-2.155-0.166-4.316-0.25-6.474l0.532,0.478l-3.481,0.105
			c-1.16,0.035-2.321,0.068-3.481,0.09C95.161,43.903,92.841,43.938,90.517,43.943z"/>
		<g>
			<circle opacity="0.2" fill="#1E1E1E" cx="69.063" cy="66.685" r="13.641"/>
			<path fill="#F2F0F1" d="M55.66,65.14c-0.22,7.53,5.705,13.813,13.235,14.031c7.532,0.219,13.813-5.709,14.031-13.237
				c0.22-7.532-5.706-13.813-13.237-14.032C62.159,51.682,55.876,57.611,55.66,65.14z"/>
			<path fill="#EFD42F" d="M66.33,63.903c0.939,0.028,1.726-0.855,1.758-1.973c0.024-0.796-0.351-1.479-0.905-1.826
				c0.533-0.329,1.113-0.515,1.726-0.495c2.294,0.066,4.075,2.806,3.979,6.12c-0.042,1.466-0.459,2.78-1.094,3.804
				c-0.205-0.417-0.565-0.718-1.005-0.73c-0.674-0.02-1.244,0.618-1.269,1.422c-0.011,0.429,0.14,0.807,0.375,1.082
				c-0.424,0.193-0.869,0.314-1.335,0.302c-2.296-0.066-4.075-2.81-3.979-6.122c0.025-0.876,0.184-1.696,0.44-2.439
				C65.316,63.54,65.776,63.889,66.33,63.903z"/>
			<path fill="#1E1C1D" d="M66.33,63.903c0.939,0.028,1.726-0.855,1.758-1.973c0.005-0.147-0.036-0.278-0.058-0.422
				c0.365-0.184,0.759-0.292,1.169-0.278c1.777,0.052,3.159,2.103,3.088,4.584c-0.035,1.228-0.422,2.327-1.019,3.119
				c-0.146-0.077-0.31-0.125-0.479-0.131c-0.65-0.018-1.189,0.576-1.25,1.339c-0.195,0.047-0.397,0.073-0.602,0.066
				c-1.775-0.051-3.157-2.102-3.086-4.582c0.019-0.631,0.131-1.227,0.315-1.766C66.223,63.87,66.271,63.902,66.33,63.903z"/>
		</g>
		<g>
			<path fill="#F7F0F2" d="M94.612,35.39c-0.467,0.026-0.895-0.295-0.986-0.769C88.274,7.32,69.017,5.671,68.821,5.657
				c-0.522-0.035-0.92-0.491-0.885-1.017c0.036-0.524,0.494-0.925,1.017-0.885C69.17,3.771,74.308,4.17,80.177,8.16
				c5.371,3.649,12.388,11.139,15.319,26.093c0.101,0.519-0.236,1.019-0.752,1.12C94.7,35.381,94.655,35.387,94.612,35.39z"/>
		</g>
		<path fill="#E0BF20" d="M113.495,156.594c0,0-0.262-0.09-0.567-0.285c-0.156-0.096-0.326-0.214-0.49-0.358
			c-0.162-0.146-0.308-0.339-0.486-0.491c-0.174-0.158-0.361-0.3-0.537-0.432c-0.178-0.128-0.351-0.236-0.507-0.319
			c-0.078-0.042-0.154-0.067-0.221-0.097c-0.064-0.032-0.125-0.046-0.174-0.062c-0.102-0.029-0.159-0.047-0.159-0.047l0.005-0.062
			c0,0,0.062,0,0.171,0c0.055,0,0.122-0.001,0.197,0.016c0.074,0.013,0.164,0.021,0.255,0.045c0.185,0.045,0.396,0.111,0.614,0.209
			c0.105,0.051,0.221,0.098,0.326,0.16c0.107,0.063,0.219,0.122,0.322,0.191c0.216,0.132,0.438,0.253,0.618,0.403
			c0.178,0.157,0.313,0.33,0.415,0.491c0.208,0.319,0.264,0.596,0.264,0.596L113.495,156.594z"/>
		<path fill="#E0BF20" d="M109.782,159.413c0,0-0.324-0.009-0.753-0.123c-0.216-0.053-0.461-0.129-0.709-0.237
			c-0.249-0.113-0.497-0.27-0.76-0.393c-0.263-0.127-0.525-0.25-0.778-0.353c-0.25-0.105-0.486-0.2-0.692-0.269
			c-0.103-0.038-0.198-0.066-0.283-0.087c-0.085-0.021-0.16-0.047-0.222-0.055c-0.126-0.022-0.196-0.037-0.196-0.037v-0.062
			c0,0,0.074-0.003,0.206-0.01c0.067-0.007,0.146,0,0.237,0.006c0.092,0.004,0.195,0.012,0.308,0.029
			c0.224,0.026,0.482,0.071,0.755,0.141c0.273,0.064,0.559,0.147,0.846,0.231c0.143,0.042,0.286,0.086,0.427,0.128
			c0.144,0.041,0.281,0.086,0.409,0.138c0.255,0.112,0.479,0.247,0.662,0.379c0.371,0.259,0.572,0.517,0.572,0.517L109.782,159.413z
			"/>
		<g>
			<path opacity="0.3" fill="#191918" d="M70.234,91.146c-2.561,0.229-11.587,0.044-15.073-1.326
				c-3.484-1.371-7.358,0.112-6.685,4.901c0.676,4.785,6.155,14.663,23.379,13.126c17.221-1.538,20.884-12.033,20.406-17.383
				c-0.478-5.347-5.711-4.138-6.982-3.432C84.007,87.739,73.326,90.869,70.234,91.146z"/>
			<path fill="#494638" d="M70.234,89.286c-2.561,0.229-11.587,0.046-15.073-1.325c-3.484-1.369-7.358,0.112-6.685,4.899
				c0.676,4.787,6.155,14.663,23.379,13.127c17.221-1.537,20.884-12.034,20.406-17.382c-0.478-5.347-5.711-4.139-6.982-3.432
				C84.007,85.881,73.326,89.011,70.234,89.286z"/>
			<path fill="#EA3434" d="M63.926,105.824c0,0,2.839-6.985,8.526-7.564c5.684-0.578,9.491,5.313,9.491,5.313
				S72.327,107.398,63.926,105.824z"/>
			<path fill="#EA3434" d="M57.98,104.2c0,0,8.187-9.297,13.587-3.653"/>
			<path fill="#FFFFFF" d="M53.257,101.201c0,0,3.108-3.27,6.194-1.754c3.154,1.549,3.195,4.08,2.674,6.073
				C62.125,105.521,56.539,104.386,53.257,101.201z"/>
			<path fill="#FFFFFF" d="M62.125,105.521c0,0,0.565-4.681,4.687-4.503c4.12,0.176,5.044,4.97,5.044,4.97
				S64.902,106.331,62.125,105.521z"/>
			<path fill="#FFFFFF" d="M71.855,105.987c0,0-0.506-4.497,3.54-5.78c3.702-1.178,6.548,3.365,6.548,3.365
				S76.216,105.924,71.855,105.987z"/>
			<path fill="#FFFFFF" d="M81.943,103.572c0,0-1.981-3.729,0.819-6.155c2.799-2.426,6.519,0.589,6.519,0.589
				S86.449,101.783,81.943,103.572z"/>
			<path fill="#FFFFFF" d="M51.474,87.614c0,0-1.715,4.146,3.259,5.528c4.717,1.311,5.789-4.127,5.789-4.127
				s-4.051-0.61-5.139-0.972C54.296,87.683,52.749,87.468,51.474,87.614z"/>
			<path fill="#FFFFFF" d="M60.56,89.014c0,0,0.03,5.041,5.085,5.134c5.051,0.094,4.628-4.864,4.628-4.864
				S65.92,90.068,60.56,89.014z"/>
			<path fill="#FFFFFF" d="M70.272,89.283c0,0,1.061,4.885,5.923,3.964c4.863-0.92,3.424-6.185,3.424-6.185
				S76.354,88.492,70.272,89.283z"/>
			<path fill="#FFFFFF" d="M79.619,87.063c0,0,1.456,4.769,6.018,3.224c4.561-1.544,3.013-5.723,3.013-5.723
				s-1.413-0.229-2.835,0.375C84.394,85.544,79.619,87.063,79.619,87.063z"/>
			<path fill="#D1AE19" d="M68.363,106.647c-14.591,0-19.71-8.974-20.381-13.718c-0.256-1.825,0.1-3.354,1.029-4.425
				c0.856-0.986,2.166-1.53,3.685-1.53c0.863,0,1.779,0.181,2.647,0.523c2.413,0.947,7.901,1.373,12.27,1.373
				c1.076,0,1.992-0.029,2.578-0.081c3.094-0.277,13.752-3.443,14.846-4.051c0.606-0.339,1.827-0.7,3.071-0.7
				c1.586,0,4.3,0.588,4.651,4.521c0.491,5.512-3.235,16.351-20.86,17.924C70.689,106.591,69.5,106.647,68.363,106.647z
				 M52.696,87.973c-1.226,0-2.268,0.421-2.932,1.187c-0.734,0.846-1.009,2.1-0.794,3.633c0.628,4.445,5.486,12.857,19.393,12.857
				c1.107,0,2.268-0.053,3.447-0.16c16.84-1.503,20.416-11.671,19.954-16.837c-0.213-2.4-1.443-3.617-3.656-3.617
				c-1.139,0-2.17,0.344-2.587,0.574C84.099,86.4,73.4,89.505,70.279,89.783c-0.612,0.055-1.561,0.084-2.666,0.084
				c-3.33,0-9.737-0.304-12.633-1.441C54.226,88.13,53.437,87.973,52.696,87.973z"/>
			<g>
				<path fill="#D1AE19" d="M49.906,85.15c0,0-0.514,0.197-1.175,0.628c-0.164,0.107-0.339,0.226-0.515,0.359
					c-0.185,0.123-0.347,0.293-0.536,0.437c-0.164,0.172-0.353,0.331-0.506,0.524c-0.17,0.182-0.323,0.379-0.456,0.592
					c-0.299,0.403-0.503,0.864-0.691,1.302c-0.076,0.229-0.15,0.448-0.22,0.657c-0.077,0.21-0.099,0.421-0.152,0.611
					c-0.104,0.383-0.144,0.716-0.181,0.949c-0.039,0.234-0.071,0.371-0.071,0.371s-0.034-0.132-0.074-0.369
					c-0.027-0.236-0.125-0.579-0.102-0.996c0.008-0.208-0.019-0.44,0.031-0.677c0.042-0.237,0.065-0.496,0.141-0.751
					c0.091-0.249,0.148-0.525,0.279-0.776c0.135-0.247,0.245-0.517,0.422-0.745c0.646-0.969,1.653-1.608,2.444-1.874
					c0.396-0.142,0.742-0.197,0.981-0.229C49.771,85.131,49.906,85.15,49.906,85.15z"/>
			</g>
			<g>
				<path fill="#D1AE19" d="M91.177,82.011c0,0,0.518,0.097,1.215,0.46c0.35,0.179,0.733,0.434,1.115,0.749
					c0.379,0.317,0.748,0.704,1.061,1.137c0.31,0.433,0.568,0.908,0.729,1.384c0.102,0.229,0.146,0.469,0.195,0.691
					c0.06,0.221,0.084,0.435,0.089,0.634c0.045,0.394-0.004,0.723-0.028,0.948c-0.026,0.226-0.052,0.352-0.052,0.352
					s-0.041-0.127-0.094-0.344c-0.04-0.219-0.126-0.522-0.248-0.873c-0.103-0.354-0.272-0.748-0.47-1.151
					c-0.2-0.403-0.438-0.821-0.729-1.202c-0.269-0.398-0.596-0.757-0.902-1.095c-0.317-0.328-0.628-0.628-0.908-0.876
					C91.596,82.319,91.177,82.011,91.177,82.011z"/>
			</g>
		</g>
		<path fill="#EED42C" d="M110.01,85.15c0,0,18.146,24.983,17.311,26.48c-0.837,1.498-10.473,25.824-15.689,26.233
			c0,0-2.131-0.406-4.188,0.137c-2.056,0.544-3.862-2.112-4.057-3.228c0,0-1.411,1.242-2.166,0.546
			c-0.755-0.694-3.409-5.01,0.979-8.801l2.405,0.456c0,0-0.244-5.15,2.55-6.61c0,0,4.414,0.641,8.363,4.301
			c0,0,4.523-8.92,4.789-12.441c0,0-11.229-18.045-13.011-18.767"/>
		<path fill="#EED42C" d="M27.072,85.15c0,0-18.146,24.983-17.311,26.48c0.837,1.498,10.473,25.824,15.689,26.233
			c0,0,2.131-0.406,4.188,0.137c2.056,0.544,3.862-2.112,4.057-3.228c0,0,1.411,1.242,2.166,0.546
			c0.755-0.694,3.409-5.01-0.979-8.801l-2.405,0.456c0,0,0.244-5.15-2.55-6.61c0,0-4.414,0.641-8.363,4.301
			c0,0-4.523-8.92-4.789-12.441c0,0,11.229-18.045,13.011-18.767"/>
	</g>
</g>
<g id="_x34_04">
</g>
<g id="Gbr_Blog" display="none">
</g>
<g id="Layer_6">
</g>
</svg>
