<?xml version="1.0" encoding="utf-8"?>
<!-- Generator: Adobe Illustrator 16.0.0, SVG Export Plug-In . SVG Version: 6.00 Build 0)  -->
<!DOCTYPE svg PUBLIC "-//W3C//DTD SVG 1.1//EN" "http://www.w3.org/Graphics/SVG/1.1/DTD/svg11.dtd">
<svg version="1.1" xmlns="http://www.w3.org/2000/svg" xmlns:xlink="http://www.w3.org/1999/xlink" x="0px" y="0px"
	 width="163.56px" height="189.499px" viewBox="0 0 163.56 189.499" enable-background="new 0 0 163.56 189.499"
	 xml:space="preserve">
<g id="Layer_1" display="none">
</g>
<g id="Source">
</g>
<g id="Layer_2">
	<ellipse fill="#EAEAEA" cx="78.281" cy="176.506" rx="62.413" ry="10.055"/>
	<g>
		<g>
			<path fill="#EED42C" d="M53.625,132.788l-16.356,8.855c0,0,12.215,15.341,10.938,15.689c-1.275,0.351-20.994,2.684-21.344,2.684
				s-5.951,0.468-3.267-4.199c0,0-1.634,3.034-3.851,1.167c-2.218-1.867,0.816-4.784,0.816-4.784s-2.038,2.957-3.921,1.534
				c-2.029-1.534,3.338-6.668,8.121-6.317c4.784,0.349,8.867,3.033,13.302,3.033c0,0-3.361-2.624-4.644-6.474
				c-1.284-3.851,0.35-6.533,0.816-8.984c0.466-2.45,16.101-9.654,16.101-9.654L53.625,132.788z"/>
			<path fill="#E0BF20" d="M19.897,153.026c0,0,0.261-0.09,0.567-0.285c0.155-0.096,0.325-0.214,0.49-0.358
				c0.163-0.146,0.308-0.339,0.485-0.491c0.175-0.158,0.36-0.3,0.537-0.432c0.177-0.128,0.351-0.236,0.508-0.319
				c0.078-0.042,0.152-0.067,0.218-0.097c0.066-0.032,0.127-0.046,0.176-0.062c0.102-0.029,0.159-0.047,0.159-0.047l-0.006-0.062
				c0,0-0.062,0-0.17,0c-0.055,0-0.124-0.001-0.198,0.016c-0.074,0.013-0.163,0.021-0.254,0.045
				c-0.186,0.045-0.397,0.111-0.612,0.209c-0.105,0.051-0.224,0.098-0.329,0.16c-0.106,0.063-0.218,0.122-0.323,0.191
				c-0.213,0.132-0.438,0.253-0.618,0.403c-0.175,0.157-0.312,0.33-0.414,0.491c-0.208,0.319-0.263,0.596-0.263,0.596
				L19.897,153.026z"/>
			<path fill="#E0BF20" d="M23.609,155.846c0,0,0.324-0.009,0.752-0.123c0.216-0.053,0.46-0.129,0.71-0.237
				c0.248-0.113,0.496-0.27,0.761-0.393c0.261-0.127,0.525-0.25,0.776-0.353c0.252-0.105,0.486-0.2,0.694-0.269
				c0.103-0.038,0.196-0.066,0.282-0.087c0.084-0.021,0.158-0.047,0.222-0.055c0.125-0.022,0.196-0.037,0.196-0.037v-0.062
				c0,0-0.074-0.003-0.206-0.01c-0.067-0.007-0.146,0-0.237,0.006c-0.093,0.004-0.195,0.012-0.307,0.029
				c-0.225,0.026-0.484,0.071-0.756,0.141c-0.273,0.064-0.561,0.147-0.847,0.231c-0.144,0.042-0.285,0.086-0.427,0.128
				c-0.141,0.041-0.279,0.086-0.409,0.138c-0.254,0.112-0.479,0.247-0.661,0.379c-0.369,0.259-0.572,0.517-0.572,0.517
				L23.609,155.846z"/>
		</g>
		<path fill="#EED42C" d="M81.58,136.103l13.067,18.67c0,0-9.552,24.268-8.276,24.616c1.275,0.351,20.994,2.684,21.344,2.684
			c0.351,0,5.95,0.468,3.267-4.199c0,0,1.634,3.034,3.851,1.167s-0.817-4.784-0.817-4.784s2.039,2.957,3.922,1.534
			c2.028-1.534-3.339-6.668-8.122-6.317c-4.782,0.349-8.867,3.033-13.302,3.033c0,0,0.702-11.551,1.984-15.4
			c1.283-3.851-0.35-6.533-0.815-8.984c-0.467-2.45-4.085-13.299-4.085-13.299L81.58,136.103z"/>
		<g>
			<path fill="#DED7D5" d="M104.427,60.708c0.966-8.49,1.55-28.548-13.908-31.436c-4.414-0.826-17.848-3.337-24.346,24.144
				L54.58,50.673c7.932-33.525,27.292-35.136,38.128-33.11c10.361,1.937,17.773,8.539,21.439,19.097
				c3.116,8.979,2.869,18.768,2.115,25.396L104.427,60.708z"/>
		</g>
		<path fill="#EED42C" d="M112.796,139.79c-0.578,3.103-3.565,5.148-6.67,4.57l-71.789-13.415c-3.105-0.58-5.15-3.566-4.571-6.671
			l13.415-71.788c0.581-3.105,3.565-5.151,6.672-4.57l71.788,13.415c3.104,0.578,5.149,3.564,4.572,6.67L112.796,139.79z"/>
		<path fill="#FCEDAE" d="M108.161,64.138c2.305,0.3,4.603,0.63,6.901,0.979c1.146,0.169,2.294,0.351,3.439,0.533l3.439,0.549
			l0.489,0.078l-0.087,0.512c-0.358,2.128-0.694,4.262-1.075,6.387c-0.373,2.125-0.727,4.256-1.123,6.378l-1.164,6.371l-1.217,6.359
			l-1.262,6.353l-1.314,6.346c-0.461,2.11-0.903,4.222-1.385,6.328c-0.467,2.107-0.96,4.213-1.475,6.313
			c0.281-2.145,0.584-4.284,0.907-6.419c0.314-2.137,0.663-4.269,0.997-6.402l1.064-6.389l1.117-6.379l1.163-6.371l1.212-6.36
			c0.398-2.123,0.838-4.238,1.256-6.355c0.414-2.118,0.872-4.23,1.307-6.346l0.403,0.591l-3.406-0.73
			c-1.135-0.243-2.27-0.489-3.401-0.746C112.681,65.211,110.419,64.689,108.161,64.138z"/>
		<g>
			<path opacity="0.2" fill="#1E1E1E" d="M68.743,77.435c-2.018,7.26,2.235,14.776,9.493,16.792
				c7.26,2.015,14.778-2.235,16.796-9.495c2.014-7.259-2.237-14.778-9.497-16.793C78.274,65.924,70.759,70.174,68.743,77.435z"/>
			<circle fill="#F2F0F1" cx="82.386" cy="80.023" r="13.639"/>
			<path fill="#EFD42F" d="M79.9,77.729c0.905,0.252,1.88-0.418,2.179-1.495c0.215-0.767,0.014-1.521-0.441-1.989
				c0.596-0.192,1.204-0.233,1.794-0.068c2.211,0.614,3.284,3.7,2.398,6.896c-0.392,1.413-1.111,2.589-1.973,3.431
				c-0.099-0.454-0.377-0.832-0.801-0.949c-0.649-0.181-1.355,0.302-1.572,1.076c-0.112,0.414-0.058,0.817,0.105,1.141
				c-0.458,0.086-0.919,0.098-1.368-0.026c-2.214-0.614-3.284-3.703-2.398-6.896c0.234-0.845,0.584-1.604,1.012-2.264
				C79.003,77.133,79.366,77.581,79.9,77.729z"/>
			<path fill="#1E1C1D" d="M79.9,77.729c0.905,0.252,1.88-0.418,2.179-1.495c0.04-0.142,0.031-0.278,0.045-0.423
				c0.398-0.091,0.807-0.103,1.202,0.009c1.713,0.476,2.563,2.798,1.9,5.19c-0.328,1.184-0.967,2.158-1.735,2.784
				c-0.124-0.109-0.271-0.195-0.435-0.241c-0.627-0.173-1.293,0.274-1.534,1c-0.201-0.001-0.403-0.023-0.6-0.079
				c-1.712-0.475-2.563-2.796-1.899-5.188c0.169-0.608,0.421-1.159,0.729-1.639C79.804,77.67,79.843,77.713,79.9,77.729z"/>
		</g>
		<g>
			<path fill="#F7F0F2" d="M114.186,56.813c-0.459-0.086-0.798-0.5-0.773-0.982c1.339-27.788-16.964-33.999-17.15-34.06
				c-0.499-0.159-0.775-0.697-0.616-1.198c0.161-0.501,0.702-0.78,1.199-0.616c0.207,0.066,5.1,1.684,9.844,6.963
				c4.341,4.829,9.36,13.78,8.627,29.002c-0.025,0.527-0.473,0.932-0.998,0.907C114.273,56.826,114.229,56.821,114.186,56.813z"/>
		</g>
		<path fill="#EED42C" d="M37.868,98.899c0,0-23.188-7.553-22.975-9.254c0.213-1.703,0-27.867,4.68-30.207
			c0,0,2.127-0.425,3.83-1.701c1.701-1.276,4.373,0.506,4.973,1.467c0,0,0.84-1.682,1.801-1.32c0.961,0.359,5.043,3.361,2.4,8.523
			l-2.4,0.481c0,0,2.162,4.682,0.121,7.084c0,0-4.33,1.065-9.365-0.842c0,0-0.84,9.966,0.238,13.329c0,0,14.168,3.722,16.09,3.722"
			/>
		<g>
			<path fill="#EED42C" d="M113.203,114.32l15.224,5.343l8.531-13.632c0,0-0.797-0.672-0.349-3.666
				c0.445-2.994-0.226-6.857-1.573-7.386c-1.349-0.531-5.265-2.586-0.787-4.348c4.478-1.763,4.116,3.124,6.264,3.469
				c2.146,0.347,6.44-2.323,12.562-5.856c6.122-3.533,7.507-1.915,7.513,0.147c0.004,2.064-3.383,3.493-4.123,3.91
				c-0.738,0.417-5.354,3.014-5.354,3.014s7.342-2.587,8.529-3.253c1.189-0.667,3.395-1.427,3.953,0.6
				c0.56,2.024-0.935,3.366-0.935,3.366s1.777-1.014,1.894,1.261c0.114,2.274-1.003,3.586-2.318,3.843
				c-1.314,0.259-21.83,7.271-21.83,7.271s-4.472,10.481-8.27,16.53c0,0-15.493-0.077-21.862-2.72L113.203,114.32z"/>
			<path fill="#E0BF20" d="M162.67,96.059c0,0-0.644,0.282-1.619,0.678c-0.976,0.404-2.284,0.908-3.604,1.398
				c-0.661,0.243-1.314,0.508-1.945,0.705c-0.631,0.196-1.236,0.332-1.763,0.421c-0.26,0.054-0.51,0.072-0.724,0.099
				c-0.214,0.029-0.414,0.022-0.569,0.025c-0.154,0.01-0.289-0.022-0.37-0.033c-0.085-0.014-0.129-0.022-0.129-0.022l0.008-0.064
				c0,0,0.043-0.01,0.124-0.028c0.082-0.023,0.19-0.03,0.336-0.086c0.145-0.053,0.319-0.093,0.521-0.172
				c0.2-0.068,0.424-0.146,0.672-0.233c0.247-0.085,0.514-0.177,0.797-0.274c0.282-0.102,0.585-0.192,0.897-0.292
				c0.626-0.184,1.308-0.349,1.979-0.547c1.344-0.393,2.681-0.816,3.688-1.118c1.006-0.31,1.677-0.517,1.677-0.517L162.67,96.059z"
				/>
			<path fill="#E0BF20" d="M148.415,98.922c0,0-0.439,0.058-1.077,0.121c-0.313,0.035-0.683,0.073-1.078,0.115
				c-0.391,0.046-0.805,0.103-1.211,0.173c-0.203,0.032-0.406,0.074-0.603,0.118c-0.194,0.047-0.39,0.088-0.571,0.147
				c-0.181,0.057-0.354,0.114-0.516,0.179c-0.161,0.066-0.311,0.137-0.444,0.209c-0.131,0.074-0.256,0.145-0.356,0.221
				c-0.104,0.071-0.189,0.142-0.261,0.204c-0.139,0.123-0.218,0.203-0.218,0.203s0.009-0.025,0.026-0.074
				c0.021-0.047,0.038-0.125,0.087-0.211c0.045-0.085,0.099-0.195,0.185-0.302c0.079-0.116,0.185-0.234,0.313-0.35
				c0.124-0.118,0.271-0.236,0.438-0.339c0.165-0.106,0.345-0.211,0.543-0.289c0.39-0.172,0.826-0.299,1.263-0.373
				c0.221-0.033,0.439-0.064,0.656-0.078c0.219-0.02,0.433-0.019,0.639-0.022c0.412,0.002,0.795,0.036,1.12,0.089
				C148.001,98.758,148.415,98.922,148.415,98.922z"/>
		</g>
		<path fill="#E0BF20" d="M114.681,175.082c0,0-0.262-0.09-0.567-0.285c-0.156-0.096-0.326-0.214-0.49-0.358
			c-0.162-0.146-0.308-0.339-0.486-0.491c-0.174-0.158-0.361-0.3-0.537-0.432c-0.178-0.128-0.351-0.236-0.507-0.319
			c-0.078-0.042-0.154-0.067-0.221-0.097c-0.064-0.032-0.125-0.046-0.174-0.062c-0.102-0.029-0.159-0.047-0.159-0.047l0.005-0.062
			c0,0,0.062,0,0.171,0c0.055,0,0.122-0.001,0.197,0.016c0.074,0.013,0.164,0.021,0.255,0.045c0.185,0.045,0.396,0.111,0.614,0.209
			c0.105,0.051,0.221,0.098,0.326,0.16c0.107,0.063,0.219,0.122,0.322,0.191c0.216,0.132,0.438,0.253,0.618,0.403
			c0.178,0.157,0.313,0.33,0.415,0.491c0.208,0.319,0.264,0.596,0.264,0.596L114.681,175.082z"/>
		<path fill="#E0BF20" d="M110.968,177.901c0,0-0.324-0.009-0.753-0.123c-0.216-0.053-0.461-0.129-0.709-0.237
			c-0.249-0.113-0.497-0.27-0.76-0.393c-0.263-0.127-0.525-0.25-0.778-0.353c-0.25-0.105-0.486-0.2-0.692-0.269
			c-0.103-0.038-0.198-0.066-0.283-0.087c-0.085-0.021-0.16-0.047-0.222-0.055c-0.126-0.022-0.196-0.037-0.196-0.037v-0.062
			c0,0,0.074-0.003,0.206-0.01c0.067-0.007,0.146,0,0.237,0.006c0.092,0.004,0.195,0.012,0.308,0.029
			c0.224,0.026,0.482,0.071,0.755,0.141c0.273,0.064,0.559,0.147,0.846,0.231c0.143,0.042,0.286,0.086,0.427,0.128
			c0.144,0.041,0.281,0.086,0.409,0.138c0.255,0.112,0.479,0.247,0.662,0.379c0.371,0.259,0.572,0.517,0.572,0.517L110.968,177.901z
			"/>
		<g>
			<path opacity="0.3" fill="#191918" d="M77.17,105.113c-2.541-0.392-11.261-2.731-14.317-4.896
				c-3.055-2.165-7.172-1.652-7.664,3.159c-0.489,4.808,2.467,15.71,19.558,18.341c17.088,2.629,23.157-6.685,23.974-11.993
				c0.816-5.306-4.555-5.384-5.958-5.003C91.357,105.103,80.238,105.585,77.17,105.113z"/>
			<path fill="#494638" d="M77.615,103.308c-2.541-0.392-11.261-2.729-14.318-4.895c-3.055-2.164-7.171-1.653-7.663,3.156
				c-0.489,4.81,2.467,15.71,19.558,18.342c17.088,2.63,23.157-6.686,23.974-11.991s-4.555-5.386-5.958-5.004
				C91.802,103.298,80.683,103.78,77.615,103.308z"/>
			<path fill="#EA3434" d="M67.531,117.854c0,0,4.429-6.103,10.089-5.304c5.656,0.8,7.943,7.431,7.943,7.431
				S75.312,121.395,67.531,117.854z"/>
			<path fill="#EA3434" d="M62.147,114.854c0,0,10.174-7.066,14.066-0.295"/>
			<path fill="#FFFFFF" d="M58.279,110.813c0,0,3.8-2.431,6.434-0.221c2.692,2.259,2.126,4.727,1.143,6.537
				C65.855,117.129,60.703,114.689,58.279,110.813z"/>
			<path fill="#FFFFFF" d="M65.855,117.129c0,0,1.669-4.409,5.628-3.25c3.958,1.156,3.708,6.032,3.708,6.032
				S68.357,118.58,65.855,117.129z"/>
			<path fill="#FFFFFF" d="M75.191,119.911c0,0,0.585-4.487,4.82-4.765c3.877-0.258,5.552,4.835,5.552,4.835
				S79.44,120.894,75.191,119.911z"/>
			<path fill="#FFFFFF" d="M85.563,119.981c0,0-1.031-4.096,2.27-5.78c3.298-1.686,6.188,2.132,6.188,2.132
				S90.367,119.322,85.563,119.981z"/>
			<path fill="#FFFFFF" d="M59.8,97.193c0,0-2.657,3.615,1.841,6.147c4.266,2.401,6.608-2.621,6.608-2.621s-3.787-1.563-4.757-2.174
				C62.523,97.936,61.073,97.356,59.8,97.193z"/>
			<path fill="#FFFFFF" d="M68.286,100.727c0,0-1.177,4.902,3.709,6.202c4.881,1.3,5.657-3.615,5.657-3.615
				S73.239,103.034,68.286,100.727z"/>
			<path fill="#FFFFFF" d="M77.652,103.313c0,0-0.14,4.997,4.802,5.267c4.942,0.271,4.805-5.186,4.805-5.186
				S83.746,104.001,77.652,103.313z"/>
			<path fill="#FFFFFF" d="M87.259,103.395c0,0,0.272,4.979,5.071,4.571c4.798-0.408,4.295-4.836,4.295-4.836
				s-1.317-0.561-2.843-0.314C92.259,103.063,87.259,103.395,87.259,103.395z"/>
			<path fill="#D1AE19" d="M71.643,119.716c-14.167-3.492-16.989-13.431-16.505-18.197c0.188-1.833,0.899-3.233,2.059-4.05
				c1.067-0.753,2.47-0.967,3.943-0.604c0.839,0.206,1.685,0.602,2.445,1.142c2.116,1.497,7.344,3.225,11.584,4.271
				c1.045,0.258,1.941,0.448,2.523,0.538c3.07,0.472,14.176-0.051,15.384-0.379c0.67-0.185,1.941-0.243,3.149,0.055
				c1.539,0.38,4.034,1.601,3.434,5.504c-0.843,5.469-7.056,15.101-24.545,12.409C73.915,120.218,72.746,119.988,71.643,119.716z
				 M60.901,97.834c-1.19-0.293-2.303-0.134-3.131,0.45c-0.915,0.646-1.481,1.797-1.641,3.337
				c-0.454,4.467,2.25,13.797,15.752,17.126c1.074,0.266,2.214,0.491,3.385,0.67c16.71,2.571,22.616-6.444,23.404-11.571
				c0.368-2.381-0.535-3.857-2.684-4.387c-1.105-0.272-2.189-0.186-2.649-0.062c-1.571,0.427-12.701,0.88-15.798,0.403
				c-0.608-0.094-1.536-0.292-2.609-0.557c-3.232-0.797-9.381-2.626-11.92-4.424C62.349,98.353,61.62,98.011,60.901,97.834z"/>
			<g>
				<path fill="#D1AE19" d="M58.868,94.426c0,0-0.547,0.068-1.291,0.328c-0.186,0.065-0.383,0.139-0.586,0.227
					c-0.209,0.075-0.407,0.201-0.625,0.296c-0.201,0.127-0.421,0.236-0.617,0.388c-0.208,0.135-0.404,0.29-0.584,0.465
					c-0.387,0.32-0.695,0.72-0.983,1.099c-0.129,0.203-0.253,0.399-0.371,0.585c-0.124,0.186-0.196,0.386-0.294,0.558
					c-0.192,0.347-0.311,0.66-0.402,0.879c-0.094,0.218-0.158,0.343-0.158,0.343s-0.001-0.137,0.016-0.376
					c0.03-0.236,0.018-0.592,0.141-0.992c0.057-0.199,0.088-0.431,0.192-0.649c0.098-0.22,0.183-0.465,0.316-0.695
					c0.148-0.221,0.271-0.475,0.457-0.687c0.19-0.208,0.362-0.442,0.588-0.623c0.86-0.785,1.99-1.165,2.822-1.234
					c0.419-0.043,0.768-0.014,1.008,0.013C58.741,94.375,58.868,94.426,58.868,94.426z"/>
			</g>
			<g>
				<path fill="#D1AE19" d="M99.69,101.257c0,0,0.479,0.218,1.069,0.737c0.297,0.258,0.608,0.597,0.903,0.994
					c0.291,0.399,0.558,0.862,0.758,1.357c0.196,0.494,0.334,1.019,0.376,1.518c0.044,0.247,0.03,0.49,0.023,0.719
					c0.006,0.229-0.022,0.441-0.064,0.637c-0.051,0.393-0.178,0.7-0.255,0.913c-0.08,0.213-0.135,0.329-0.135,0.329
					s-0.01-0.133-0.009-0.356c0.014-0.222,0.003-0.537-0.032-0.906c-0.015-0.368-0.085-0.792-0.181-1.23
					c-0.097-0.439-0.228-0.902-0.419-1.343c-0.166-0.45-0.397-0.876-0.614-1.277c-0.23-0.396-0.46-0.761-0.672-1.068
					C100.023,101.656,99.69,101.257,99.69,101.257z"/>
			</g>
		</g>
	</g>
	<g>
		<path fill-rule="evenodd" clip-rule="evenodd" fill="#F3D8D8" d="M1.853,43.015c-0.021-0.005-0.04-0.007-0.059-0.012
			c0.274-1.434,0.551-2.87,0.827-4.306c0.018,0.003,0.035,0.005,0.054,0.01c0.091,0.128,0.048,0.267,0.023,0.399
			c-0.224,1.182-0.45,2.362-0.68,3.542C1.992,42.782,1.979,42.926,1.853,43.015z"/>
		<path fill-rule="evenodd" clip-rule="evenodd" fill="#273947" d="M1.853,43.015c0.273-1.436,0.549-2.872,0.822-4.308
			c0.262-0.929,0.495-1.866,0.788-2.784c0.308-0.958,0.511-1.962,1.086-2.816c0.609-0.91,1.396-1.636,2.373-2.139
			c1.1-0.567,2.293-0.753,3.512-0.769c0.47-0.007,0.941,0.075,1.41,0.126c0.144,0.016,0.243,0,0.356-0.122
			c0.974-1.041,2.205-1.63,3.587-1.855c1.271-0.208,2.561-0.233,3.819,0.148c0.131,0.039,0.203-0.011,0.288-0.083
			c0.816-0.709,1.779-1.112,2.825-1.345c0.966-0.216,1.944-0.334,2.929-0.271c0.797,0.053,1.576,0.246,2.316,0.563
			c0.342,0.146,0.344,0.142,0.418-0.203c0.344-1.57,0.667-3.146,1.034-4.711c0.479-2.046,0.899-4.104,1.365-6.153
			c0.454-2.012,0.895-4.025,1.338-6.039c0.229-1.04,0.46-2.083,0.769-3.099c0.226-0.746,0.652-1.41,1.159-2.018
			c0.724-0.865,1.614-1.507,2.661-1.9c0.946-0.354,1.935-0.487,2.955-0.389c0.911,0.088,1.778,0.315,2.613,0.686
			c0.399,0.178,0.785,0.4,1.139,0.635c1.245,0.824,2.152,1.946,2.549,3.411c0.249,0.915,0.279,1.849,0.117,2.792
			c-0.468,2.713-0.933,5.428-1.377,8.146c-0.22,1.352-0.432,2.706-0.666,4.058c-0.391,2.235-0.722,4.479-1.104,6.717
			c-0.24,1.39-0.478,2.78-0.668,4.179c-0.114,0.844-0.371,1.672-0.47,2.519c-0.131,1.139-0.387,2.255-0.543,3.387
			c-0.073,0.527-0.144,1.06-0.27,1.575c-0.138,0.558-0.041,1.067,0.146,1.593c0.465,1.313,0.933,2.629,1.338,3.964
			c0.338,1.11,0.59,2.247,0.725,3.408c0.173,1.481,0.057,2.929-0.354,4.37c-0.348,1.233-0.777,2.434-1.271,3.609
			c-0.399,0.954-0.854,1.885-1.341,2.799c-0.479,0.902-0.975,1.796-1.515,2.663c-0.791,1.272-1.628,2.521-2.572,3.692
			c-0.583,0.723-1.157,1.452-1.732,2.18c-0.099,0.123-0.167,0.265-0.193,0.425c-0.145,0.836-0.304,1.67-0.464,2.503
			c-0.344,1.778-1.303,3.099-3.066,3.694c-0.752,0.252-1.547,0.242-2.347,0.18c-0.88-0.069-1.738-0.244-2.595-0.432
			c-5.642-1.241-11.34-2.191-17-3.337c-1.554-0.314-2.723-1.156-3.361-2.647c-0.353-0.829-0.438-1.698-0.296-2.584
			c0.113-0.69,0.232-1.385,0.402-2.063c0.126-0.502,0.061-0.932-0.154-1.4c-0.789-1.716-1.43-3.491-1.974-5.298
			c-0.395-1.309-0.702-2.639-0.952-3.983c-0.185-0.986-0.332-1.978-0.436-2.973c-0.085-0.824-0.137-1.652-0.164-2.482
			c-0.038-1.067-0.026-2.136-0.008-3.203c0.008-0.48,0.083-0.961,0.062-1.441C1.844,43.795,1.92,43.403,1.853,43.015z"/>
		<path fill-rule="evenodd" clip-rule="evenodd" fill="#FEFEFD" d="M40.977,50.712c0.008,0.659,0.02,1.32-0.117,1.97
			c-0.247,1.191-0.634,2.336-1.077,3.468c-0.456,1.162-0.985,2.288-1.553,3.398c-0.598,1.172-1.271,2.297-1.978,3.402
			c-0.646,1.011-1.351,1.986-2.104,2.923c-0.653,0.813-1.325,1.611-1.93,2.463c-0.084,0.118-0.122,0.242-0.146,0.378
			c-0.204,1.066-0.391,2.137-0.621,3.198c-0.155,0.715-0.513,1.316-1.21,1.639c-0.563,0.262-1.163,0.268-1.76,0.153
			c-6.438-1.231-12.875-2.467-19.313-3.709c-1.344-0.258-2.047-1.321-1.793-2.667c0.183-0.981,0.346-1.965,0.577-2.934
			c0.099-0.418-0.068-0.727-0.22-1.055c-0.876-1.921-1.624-3.889-2.221-5.912c-0.575-1.954-0.975-3.947-1.212-5.972
			c-0.139-1.188-0.218-2.386-0.225-3.583c-0.008-1.249,0.029-2.497,0.126-3.745c0.13-1.676,0.372-3.331,0.746-4.97
			c0.327-1.443,0.761-2.859,1.258-4.249c0.406-1.13,1.297-1.846,2.454-2.166c1.445-0.401,2.877-0.321,4.272,0.253
			c0.134,0.057,0.199,0.036,0.262-0.11c0.718-1.7,2.119-2.277,3.839-2.354c0.746-0.034,1.473,0.02,2.188,0.241
			c0.403,0.126,0.752,0.341,1.072,0.597c0.148,0.119,0.19,0.108,0.265-0.059c0.347-0.782,0.915-1.363,1.693-1.707
			c0.766-0.335,1.59-0.44,2.418-0.502c0.622-0.229,1.203-0.026,1.785,0.167c1.526,0.452,2.572,1.417,3.127,3.014
			c0.162-0.684,0.313-1.284,0.445-1.889c0.592-2.681,1.163-5.363,1.767-8.039c0.476-2.099,0.935-4.2,1.396-6.303
			c0.521-2.39,1.095-4.77,1.594-7.165c0.088-0.428,0.268-0.813,0.354-1.229c-0.015-0.187,0.091-0.3,0.232-0.391
			c0.372-0.737,0.964-1.25,1.661-1.659c0.287-0.168,0.611-0.237,0.91-0.375c0.139-0.093,0.311,0.003,0.449-0.081
			c0.33-0.041,0.662-0.026,0.992-0.088c0.127-0.024,0.275,0.02,0.403,0.061c0.931,0.306,1.898,0.523,2.686,1.161
			c0.956,0.776,1.493,1.771,1.388,3.006c-0.154,1.829-0.553,3.625-0.851,5.435c-0.641,3.874-1.25,7.754-1.904,11.626
			c-0.345,2.032-0.688,4.065-1.016,6.103c-0.149,0.927-0.354,1.844-0.462,2.773c-0.08,0.684-0.221,1.356-0.311,2.037
			c-0.088,0.677-0.257,1.354-0.379,2.031c-0.15,0.844-0.289,1.692-0.424,2.538c-0.051,0.32,0.152,0.58,0.248,0.86
			c0.522,1.53,1.087,3.047,1.538,4.601c0.274,0.938,0.489,1.888,0.612,2.857C40.981,50.333,41.015,50.52,40.977,50.712z"/>
		<path fill-rule="evenodd" clip-rule="evenodd" fill="#C73E3E" d="M26.455,29.27c-0.591-0.089-1.176-0.268-1.785-0.167
			c0.334-0.163,0.657-0.342,1.043-0.104c0.135,0.082,0.321,0.081,0.483,0.113C26.303,29.134,26.414,29.145,26.455,29.27z"/>
		<path fill-rule="evenodd" clip-rule="evenodd" fill="#C44545" d="M40.977,50.712c-0.068-0.181-0.084-0.367-0.064-0.559
			c0.162,0.078,0.169,0.245,0.226,0.386C41.21,50.725,41.002,50.629,40.977,50.712z"/>
		<path fill-rule="evenodd" clip-rule="evenodd" fill="#273947" d="M22.511,47.834c0.991,0.918,2.224,1.097,3.502,1.141
			c0.669,0.022,1.33-0.004,1.977-0.212c0.415-0.134,0.785-0.341,1.139-0.659c0.13,0.633,0.22,1.237,0.413,1.815
			c0.101,0.298,0.203,0.591,0.367,0.86c0.181,0.297,0.467,0.405,0.749,0.276c0.262-0.119,0.398-0.474,0.242-0.763
			c-0.249-0.463-0.395-0.956-0.503-1.464c-0.184-0.853-0.281-1.718-0.324-2.59c-0.021-0.452-0.14-0.646-0.581-0.745
			c-0.838-0.189-1.68-0.356-2.516-0.552c-1.527-0.361-3.019-0.836-4.4-1.589c-1.574-0.856-2.483-2.199-2.738-3.964
			c-0.07-0.487-0.123-0.998,0.189-1.46c0.308-0.454,0.739-0.679,1.255-0.772c0.589-0.11,1.181-0.072,1.762,0.035
			c3.195,0.592,6.423,0.956,9.631,1.442c0.705,0.107,1.397,0.272,2.1,0.382c0.802,0.123,1.296,0.645,1.688,1.282
			c0.501,0.814,0.849,1.698,1.179,2.598c0.326,0.892,0.628,1.792,0.946,2.689c0.519,1.46,0.966,2.942,1.203,4.48
			c0.204,1.315,0.014,2.585-0.382,3.841c-0.377,1.204-0.837,2.375-1.365,3.519c-0.392,0.855-0.819,1.692-1.281,2.515
			c-0.684,1.221-1.422,2.407-2.219,3.557c-0.57,0.817-1.191,1.594-1.813,2.373c-0.522,0.654-1.03,1.319-1.534,1.987
			c-0.11,0.146-0.176,0.323-0.21,0.515c-0.197,1.077-0.405,2.154-0.608,3.231c-0.052,0.273-0.143,0.532-0.337,0.738
			c-0.317,0.334-0.731,0.373-1.144,0.301c-1.486-0.269-2.968-0.56-4.451-0.844c-4.994-0.958-9.988-1.922-14.983-2.874
			c-0.395-0.076-0.743-0.204-0.921-0.587c-0.131-0.283-0.143-0.588-0.083-0.896c0.209-1.075,0.407-2.153,0.626-3.229
			c0.06-0.295,0.021-0.551-0.106-0.818C8.1,61.535,7.355,59.62,6.739,57.658c-0.53-1.688-0.917-3.415-1.185-5.164
			c-0.197-1.287-0.313-2.588-0.356-3.891c-0.047-1.337-0.023-2.677,0.063-4.013c0.099-1.494,0.3-2.979,0.622-4.476
			c0.129,0.143,0.091,0.308,0.104,0.443c0.075,0.851,0.198,1.693,0.338,2.534c0.161,0.963,0.356,1.919,0.63,2.858
			c0.288,0.986,0.587,1.961,1.383,2.693c0.785,0.723,1.717,1.063,2.759,1.103c1.203,0.046,2.28-0.328,3.205-1.108
			c0.177-0.15,0.331-0.332,0.479-0.512c0.097-0.12,0.166-0.127,0.271-0.016c0.827,0.878,1.859,1.188,3.04,1.136
			c0.898-0.04,1.758-0.214,2.566-0.614c0.462-0.229,0.813-0.584,1.156-0.952C22.07,47.624,22.309,47.651,22.511,47.834z"/>
		<path fill-rule="evenodd" clip-rule="evenodd" fill="#273947" d="M41.103,6.744c1.09,0.47,1.813,1.489,1.647,2.674
			c-0.352,2.491-0.806,4.968-1.223,7.448c-0.605,3.611-1.158,7.232-1.769,10.842c-0.339,2.005-0.671,4.012-1.007,6.016
			c-0.338,2.016-0.675,4.029-1.013,6.045c-0.019,0.104-0.04,0.21-0.071,0.374c-0.34-0.521-0.626-1.009-1.045-1.393
			c-0.372-0.343-0.781-0.607-1.288-0.716c-1.555-0.334-3.12-0.604-4.697-0.802c-0.214-0.027-0.298-0.099-0.318-0.323
			c-0.058-0.623-0.144-1.243-0.224-1.864c-0.01-0.071,0.001-0.136,0.018-0.203c0.649-2.524,1.166-5.077,1.739-7.618
			c0.727-3.226,1.427-6.457,2.14-9.686c0.441-2.003,0.882-4.009,1.328-6.013c0.176-0.789,0.367-1.576,0.548-2.364
			c0.077-0.335,0.141-0.698,0.285-0.984c0.207-0.409,0.425-0.829,0.813-1.157c0.611-0.515,1.281-0.773,2.061-0.808
			c0.139-0.005,0.276,0,0.408,0.05c0.301,0.131,0.603,0.25,0.939,0.18c0.019-0.002,0.035,0,0.052,0.008
			C40.645,6.561,40.895,6.607,41.103,6.744z"/>
		<path fill-rule="evenodd" clip-rule="evenodd" fill="#273947" d="M18.438,31.713c0.533,0.045,0.998,0.335,1.398,0.752
			c0.156,0.161,0.2,0.336,0.198,0.574c-0.009,0.759-0.063,1.521,0.056,2.28c0.044,0.289,0.063,0.583,0.102,0.875
			c0.016,0.104-0.007,0.144-0.104,0.2c-1.065,0.619-1.474,1.569-1.373,2.771c0.132,1.576,0.711,2.948,1.839,4.074
			c0.089,0.09,0.181,0.181,0.285,0.253c0.797,0.555,0.777,1.393,0.651,2.183c-0.266,1.673-1.423,2.185-2.693,2.397
			c-0.515,0.088-1.035,0.106-1.556,0.014c-1.07-0.193-1.712-0.846-1.993-1.872c-0.353-1.282-0.621-2.584-0.853-3.892
			c-0.267-1.522-0.47-3.055-0.572-4.599c-0.03-0.448-0.073-0.902-0.027-1.345c0.061-0.588-0.012-1.178,0.075-1.764
			c0.093-0.611,0.246-1.196,0.563-1.728c0.419-0.707,1.095-1.043,1.871-1.171C16.99,31.603,17.688,31.549,18.438,31.713z"/>
		<path fill-rule="evenodd" clip-rule="evenodd" fill="#273947" d="M12.739,38.111c0.123,1.424,0.296,2.842,0.538,4.247
			c0.169,0.981,0.352,1.96,0.598,2.923c0.115,0.446,0.259,0.886,0.352,1.336c0.083,0.4-0.174,0.697-0.418,0.959
			c-0.682,0.731-1.545,1.049-2.537,1.061c-0.822,0.011-1.543-0.238-2.161-0.785c-0.399-0.354-0.639-0.811-0.808-1.3
			c-0.381-1.095-0.623-2.225-0.828-3.364c-0.18-0.982-0.33-1.97-0.412-2.963c-0.114-1.369-0.303-2.744-0.071-4.116
			c0.249-1.479,1.256-2.314,2.76-2.458c1.019-0.099,1.979,0.078,2.929,0.405c0.129,0.045,0.166,0.106,0.146,0.238
			c-0.108,0.644-0.084,1.299-0.148,1.944c-0.023,0.24,0.009,0.47,0.004,0.704C12.548,37.34,12.624,37.727,12.739,38.111z"/>
		<path fill-rule="evenodd" clip-rule="evenodd" fill="#273947" d="M26.64,30.518c1.299,0.561,1.864,1.63,2.086,2.958
			c0.135,0.811,0.274,1.619,0.37,2.436c0.038,0.319,0.063,0.641,0.105,0.961c0.019,0.154-0.05,0.159-0.169,0.139
			c-1.683-0.29-3.389-0.421-5.059-0.78c-0.832-0.18-1.669-0.292-2.521-0.219c-0.132,0.012-0.19-0.039-0.197-0.15
			c-0.066-0.996-0.28-1.991-0.086-2.988c0.1-0.52,0.307-1.013,0.583-1.467c0.399-0.654,1.06-0.905,1.762-1.043
			c0.488-0.096,0.982-0.17,1.483-0.166C25.528,30.395,26.129,30.221,26.64,30.518z"/>
		<path fill-rule="evenodd" clip-rule="evenodd" fill="#273947" d="M22.574,44.635c0.382,0.104,0.693,0.293,1.026,0.422
			c0.798,0.312,1.607,0.584,2.44,0.79c0.85,0.213,1.697,0.44,2.563,0.585c0.152,0.025,0.194,0.066,0.14,0.229
			c-0.201,0.595-0.63,0.967-1.21,1.085c-1.286,0.264-2.566,0.2-3.775-0.354c-0.41-0.188-0.699-0.515-0.81-1.004
			C22.818,45.819,22.717,45.244,22.574,44.635z"/>
		<path fill-rule="evenodd" clip-rule="evenodd" fill="#C84949" d="M26.64,30.518c-0.195-0.024-0.385-0.06-0.562-0.147
			c-0.059-0.028-0.148-0.063-0.195-0.038c-0.331,0.176-0.613,0.063-0.885-0.135C25.573,30.158,26.129,30.223,26.64,30.518z"/>
		<path fill-rule="evenodd" clip-rule="evenodd" fill="#C94F4F" d="M22.511,47.834c-0.232-0.052-0.465-0.103-0.696-0.153
			c0.019-0.045,0.032-0.093,0.057-0.134c0.196-0.316,0.2-0.319,0.408,0C22.348,47.65,22.474,47.707,22.511,47.834z"/>
		<path fill-rule="evenodd" clip-rule="evenodd" fill="#D2706F" d="M12.739,38.111c-0.096-0.223-0.228-0.422-0.202-0.697
			c0.016-0.181,0.059-0.326,0.144-0.472c0.087,0.101,0.051,0.222,0.054,0.336C12.736,37.557,12.737,37.834,12.739,38.111z"/>
		<g>
			<path fill="#FFFFFF" d="M11.385,51.999l3.503,0.682l-0.257,1.312l-2.169-0.424l-0.249,1.28l2.168,0.424l-0.252,1.289
				l-2.169-0.423l-0.619,3.176l-1.332-0.261L11.385,51.999z"/>
			<path fill="#FFFFFF" d="M16.171,52.934l1.423,0.277c0.78,0.151,1.32,0.33,1.624,0.534c0.303,0.203,0.524,0.485,0.662,0.848
				c0.14,0.362,0.165,0.764,0.079,1.204c-0.092,0.465-0.278,0.83-0.562,1.099c-0.282,0.27-0.663,0.439-1.143,0.512l1.06,3.463
				l-1.468-0.286l-1.004-3.297l-0.123-0.025l-0.582,2.988l-1.344-0.263L16.171,52.934z M16.977,55.952l0.421,0.083
				c0.427,0.082,0.729,0.084,0.914,0.003c0.184-0.08,0.3-0.251,0.351-0.51c0.029-0.154,0.016-0.296-0.041-0.425
				c-0.059-0.131-0.148-0.233-0.273-0.31c-0.124-0.075-0.365-0.148-0.721-0.218l-0.367-0.071L16.977,55.952z"/>
			<path fill="#FFFFFF" d="M21.784,54.028l3.85,0.752l-0.256,1.313l-2.518-0.49l-0.249,1.274l2.518,0.492l-0.252,1.29l-2.519-0.492
				l-0.362,1.857l2.518,0.492l-0.258,1.317l-3.851-0.75L21.784,54.028z"/>
			<path fill="#FFFFFF" d="M26.892,55.024l3.852,0.752l-0.257,1.313l-2.518-0.49l-0.249,1.276l2.518,0.491l-0.253,1.29l-2.518-0.492
				l-0.361,1.857l2.518,0.491l-0.258,1.318l-3.851-0.751L26.892,55.024z"/>
			<path fill="#FFFFFF" d="M31.478,61.681c0.227,0.045,0.405,0.163,0.536,0.354c0.13,0.192,0.173,0.4,0.128,0.627
				c-0.043,0.224-0.161,0.4-0.354,0.532c-0.192,0.129-0.404,0.172-0.631,0.127c-0.227-0.044-0.404-0.162-0.533-0.353
				c-0.129-0.191-0.171-0.399-0.127-0.627c0.046-0.227,0.163-0.406,0.354-0.533C31.041,61.68,31.25,61.637,31.478,61.681z
				 M31.933,55.825l1.324,0.258l-1.006,5.156l-1.325-0.258L31.933,55.825z"/>
		</g>
	</g>
</g>
<g id="_x34_04">
</g>
<g id="Gbr_Blog" display="none">
</g>
<g id="Layer_6">
</g>
</svg>
