<?xml version="1.0" encoding="utf-8"?>
<!-- Generator: Adobe Illustrator 16.0.0, SVG Export Plug-In . SVG Version: 6.00 Build 0)  -->
<!DOCTYPE svg PUBLIC "-//W3C//DTD SVG 1.1//EN" "http://www.w3.org/Graphics/SVG/1.1/DTD/svg11.dtd">
<svg version="1.1" xmlns="http://www.w3.org/2000/svg" xmlns:xlink="http://www.w3.org/1999/xlink" x="0px" y="0px"
	 width="154.123px" height="171.013px" viewBox="0 0 154.123 171.013" enable-background="new 0 0 154.123 171.013"
	 xml:space="preserve">
<g id="Layer_1" display="none">
</g>
<g id="Source">
</g>
<g id="Layer_2">
	<ellipse fill="#EAEAEA" cx="71.041" cy="158.019" rx="62.413" ry="10.055"/>
	<g>
		<path fill="#EED42C" d="M62.994,117.615l-13.068,18.67c0,0,9.555,24.268,8.277,24.616c-1.275,0.351-20.994,2.684-21.344,2.684
			s-5.951,0.468-3.267-4.199c0,0-1.634,3.034-3.851,1.167c-2.218-1.867,0.816-4.784,0.816-4.784s-2.038,2.957-3.921,1.534
			c-2.029-1.534,3.338-6.668,8.121-6.317c4.784,0.349,8.867,3.033,13.302,3.033c0,0-0.701-11.551-1.983-15.4
			c-1.284-3.851,0.35-6.533,0.816-8.984c0.466-2.45,4.083-13.299,4.083-13.299L62.994,117.615z"/>
		<path fill="#E0BF20" d="M29.895,156.595c0,0,0.261-0.09,0.567-0.285c0.155-0.096,0.325-0.214,0.49-0.358
			c0.163-0.146,0.308-0.339,0.485-0.491c0.175-0.158,0.36-0.3,0.537-0.432c0.177-0.128,0.351-0.236,0.508-0.319
			c0.078-0.042,0.152-0.067,0.218-0.097c0.066-0.032,0.127-0.046,0.176-0.062c0.102-0.029,0.159-0.047,0.159-0.047l-0.006-0.062
			c0,0-0.062,0-0.17,0c-0.055,0-0.124-0.001-0.198,0.016c-0.074,0.013-0.163,0.021-0.254,0.045
			c-0.186,0.045-0.397,0.111-0.612,0.209c-0.105,0.051-0.224,0.098-0.329,0.16c-0.106,0.063-0.218,0.122-0.323,0.191
			c-0.213,0.132-0.438,0.253-0.618,0.403c-0.175,0.157-0.312,0.33-0.414,0.491c-0.208,0.319-0.263,0.596-0.263,0.596L29.895,156.595
			z"/>
		<path fill="#E0BF20" d="M33.606,159.414c0,0,0.324-0.009,0.752-0.123c0.216-0.053,0.46-0.129,0.71-0.237
			c0.248-0.113,0.496-0.27,0.761-0.393c0.261-0.127,0.525-0.25,0.776-0.353c0.252-0.105,0.486-0.2,0.694-0.269
			c0.103-0.038,0.196-0.066,0.282-0.087c0.084-0.021,0.158-0.047,0.222-0.055c0.125-0.022,0.196-0.037,0.196-0.037V157.8
			c0,0-0.074-0.003-0.206-0.01c-0.067-0.007-0.146,0-0.237,0.006c-0.093,0.004-0.195,0.012-0.307,0.029
			c-0.225,0.026-0.484,0.071-0.756,0.141c-0.273,0.064-0.561,0.147-0.847,0.231c-0.144,0.042-0.285,0.086-0.427,0.128
			c-0.141,0.041-0.279,0.086-0.409,0.138c-0.254,0.112-0.479,0.247-0.661,0.379c-0.369,0.259-0.572,0.517-0.572,0.517
			L33.606,159.414z"/>
		<path fill="#EED42C" d="M77.617,117.615l13.067,18.67c0,0-9.552,24.268-8.276,24.616c1.275,0.351,20.994,2.684,21.344,2.684
			c0.351,0,5.95,0.468,3.267-4.199c0,0,1.634,3.034,3.851,1.167s-0.817-4.784-0.817-4.784s2.039,2.957,3.922,1.534
			c2.028-1.534-3.339-6.668-8.122-6.317c-4.782,0.349-8.867,3.033-13.302,3.033c0,0,0.702-11.551,1.984-15.4
			c1.283-3.851-0.35-6.533-0.815-8.984c-0.467-2.45-4.085-13.299-4.085-13.299L77.617,117.615z"/>
		<g>
			<path fill="#DED7D5" d="M83.292,41.508c-1.095-8.475-5.329-28.089-21.028-27.192c-4.483,0.255-18.128,1.032-17.859,29.27
				l-11.912,0.111C32.168,9.247,50.58,3.05,61.586,2.422c10.523-0.6,19.301,4.036,25.388,13.409
				c5.175,7.973,7.278,17.535,8.133,24.152L83.292,41.508z"/>
		</g>
		<path fill="#EED42C" d="M110.348,116.287c0.182,3.151-2.229,5.853-5.382,6.034l-72.913,4.16c-3.153,0.18-5.854-2.23-6.035-5.383
			l-4.159-72.912c-0.179-3.154,2.229-5.855,5.384-6.035l72.912-4.159c3.152-0.182,5.854,2.229,6.036,5.382L110.348,116.287z"/>
		<path fill="#FCEDAE" d="M87.739,43.944c2.309-0.261,4.619-0.49,6.935-0.702c1.153-0.11,2.311-0.209,3.467-0.306l3.471-0.29
			l0.494-0.042l0.038,0.518c0.161,2.152,0.346,4.305,0.484,6.459c0.147,2.152,0.313,4.306,0.437,6.461l0.396,6.465l0.341,6.466
			l0.295,6.47l0.243,6.476c0.058,2.159,0.134,4.315,0.17,6.476c0.052,2.158,0.077,4.32,0.08,6.482
			c-0.24-2.149-0.459-4.3-0.656-6.449c-0.206-2.15-0.378-4.304-0.564-6.455l-0.496-6.458l-0.442-6.461l-0.396-6.464l-0.346-6.466
			c-0.121-2.157-0.201-4.315-0.302-6.472c-0.105-2.155-0.166-4.316-0.25-6.474l0.532,0.478l-3.481,0.105
			c-1.16,0.035-2.321,0.068-3.481,0.09C92.384,43.904,90.063,43.939,87.739,43.944z"/>
		<g>
			<circle opacity="0.2" fill="#1E1E1E" cx="66.285" cy="66.686" r="13.641"/>
			<path fill="#F2F0F1" d="M52.883,65.141c-0.22,7.53,5.705,13.813,13.235,14.031c7.532,0.219,13.813-5.709,14.031-13.237
				c0.22-7.532-5.706-13.813-13.237-14.032C59.382,51.683,53.099,57.612,52.883,65.141z"/>
			<path fill="#EFD42F" d="M63.553,63.904c0.939,0.028,1.726-0.855,1.758-1.973c0.024-0.796-0.351-1.479-0.905-1.826
				c0.533-0.329,1.113-0.515,1.726-0.495c2.294,0.066,4.075,2.806,3.979,6.12c-0.042,1.466-0.459,2.78-1.094,3.804
				c-0.205-0.417-0.565-0.718-1.005-0.73c-0.674-0.02-1.244,0.618-1.269,1.422c-0.011,0.429,0.14,0.807,0.375,1.082
				c-0.424,0.193-0.869,0.314-1.335,0.302c-2.296-0.066-4.075-2.81-3.979-6.122c0.025-0.876,0.184-1.696,0.44-2.439
				C62.539,63.541,62.999,63.89,63.553,63.904z"/>
			<path fill="#1E1C1D" d="M63.553,63.904c0.939,0.028,1.726-0.855,1.758-1.973c0.005-0.147-0.036-0.278-0.058-0.422
				c0.365-0.184,0.759-0.292,1.169-0.278c1.777,0.052,3.159,2.103,3.088,4.584c-0.035,1.228-0.422,2.327-1.019,3.119
				c-0.146-0.077-0.31-0.125-0.479-0.131c-0.65-0.018-1.189,0.576-1.25,1.339c-0.195,0.047-0.397,0.073-0.602,0.066
				c-1.775-0.051-3.157-2.102-3.086-4.582c0.019-0.631,0.131-1.227,0.315-1.766C63.445,63.871,63.493,63.903,63.553,63.904z"/>
		</g>
		<g>
			<path fill="#F7F0F2" d="M91.835,35.391c-0.467,0.026-0.895-0.295-0.986-0.769C85.497,7.321,66.239,5.672,66.044,5.658
				c-0.522-0.035-0.92-0.491-0.885-1.017c0.036-0.524,0.494-0.925,1.017-0.885c0.217,0.015,5.354,0.414,11.224,4.404
				c5.371,3.649,12.388,11.139,15.319,26.093c0.101,0.519-0.236,1.019-0.752,1.12C91.923,35.382,91.878,35.388,91.835,35.391z"/>
		</g>
		<path fill="#EED42C" d="M26.586,86.613c0,0-23.187,7.553-22.975,9.254c0.213,1.703,0,27.867,4.681,30.207
			c0,0,2.127,0.425,3.83,1.701c1.7,1.276,4.372-0.506,4.972-1.467c0,0,0.841,1.682,1.802,1.32c0.961-0.359,5.043-3.361,2.4-8.523
			l-2.4-0.481c0,0,2.162-4.682,0.121-7.084c0,0-4.331-1.065-9.366,0.842c0,0-0.84-9.966,0.238-13.329c0,0,14.169-3.722,16.091-3.722
			"/>
		<g>
			<path fill="#EED42C" d="M108.021,92.263l16.099,1.072l4.571-15.418c0,0-0.947-0.434-1.317-3.438
				c-0.372-3.004-2.053-6.547-3.493-6.695c-1.441-0.15-5.764-1.082-1.922-3.979c3.843-2.896,4.803,1.908,6.964,1.666
				c2.16-0.24,5.584-3.962,10.536-9.005c4.953-5.043,6.72-3.854,7.277-1.868c0.557,1.987-2.324,4.271-2.926,4.87
				c-0.6,0.6-4.352,4.337-4.352,4.337s6.382-4.457,7.348-5.417c0.968-0.961,2.889-2.283,3.97-0.48c1.08,1.801,0,3.493,0,3.493
				s1.441-1.452,2.162,0.708c0.719,2.161-0.007,3.724-1.205,4.323c-1.197,0.602-19.088,12.849-19.088,12.849
				s-1.503,11.296-3.544,18.141c0,0-14.948,4.072-21.792,3.23L108.021,92.263z"/>
			<path fill="#E0BF20" d="M150.796,61.427c0,0-0.545,0.444-1.379,1.087c-0.832,0.65-1.958,1.486-3.098,2.312
				c-0.571,0.411-1.131,0.841-1.686,1.2c-0.556,0.357-1.103,0.65-1.586,0.877c-0.235,0.121-0.472,0.206-0.671,0.289
				c-0.198,0.085-0.393,0.132-0.541,0.177c-0.146,0.051-0.285,0.056-0.366,0.067c-0.085,0.009-0.13,0.013-0.13,0.013l-0.01-0.064
				c0,0,0.039-0.021,0.112-0.061c0.072-0.045,0.175-0.08,0.301-0.173c0.125-0.09,0.282-0.175,0.455-0.305
				c0.175-0.119,0.369-0.255,0.585-0.404c0.215-0.148,0.447-0.309,0.694-0.479c0.245-0.173,0.512-0.342,0.786-0.521
				c0.555-0.344,1.167-0.686,1.761-1.057c1.19-0.737,2.364-1.504,3.255-2.064c0.887-0.567,1.478-0.946,1.478-0.946L150.796,61.427z"
				/>
			<path fill="#E0BF20" d="M137.827,68.001c0,0-0.407,0.173-1.005,0.405c-0.293,0.117-0.639,0.253-1.008,0.399
				c-0.364,0.148-0.748,0.314-1.121,0.49c-0.187,0.086-0.371,0.181-0.549,0.275c-0.175,0.098-0.352,0.189-0.511,0.295
				c-0.159,0.104-0.312,0.205-0.449,0.311c-0.138,0.107-0.263,0.215-0.372,0.32c-0.106,0.106-0.208,0.208-0.284,0.308
				c-0.081,0.097-0.145,0.188-0.197,0.267c-0.101,0.156-0.155,0.254-0.155,0.254s0.002-0.026,0.006-0.078
				c0.007-0.051,0.003-0.131,0.027-0.227c0.021-0.094,0.043-0.215,0.097-0.341c0.045-0.133,0.115-0.274,0.208-0.42
				c0.088-0.147,0.197-0.3,0.331-0.444c0.131-0.146,0.276-0.295,0.446-0.424c0.329-0.27,0.716-0.509,1.117-0.697
				c0.203-0.091,0.406-0.18,0.611-0.251c0.205-0.077,0.411-0.134,0.609-0.192c0.397-0.108,0.775-0.178,1.103-0.214
				C137.385,67.954,137.827,68.001,137.827,68.001z"/>
		</g>
		<path fill="#E0BF20" d="M18.275,116.017c0,0,0.094,0.315,0.229,0.778c0.066,0.233,0.144,0.505,0.227,0.794
			c0.086,0.289,0.17,0.599,0.27,0.901c0.186,0.611,0.397,1.213,0.6,1.644c0.045,0.111,0.103,0.202,0.145,0.293
			c0.041,0.09,0.085,0.162,0.125,0.219c0.076,0.118,0.118,0.191,0.118,0.191s-0.062-0.053-0.168-0.15
			c-0.054-0.048-0.115-0.111-0.178-0.19c-0.062-0.077-0.146-0.161-0.207-0.268c-0.066-0.104-0.149-0.214-0.211-0.34
			c-0.064-0.125-0.144-0.256-0.201-0.397c-0.061-0.143-0.131-0.285-0.181-0.44c-0.058-0.151-0.112-0.306-0.16-0.462
			c-0.192-0.626-0.313-1.27-0.362-1.757c-0.028-0.242-0.035-0.447-0.044-0.59C18.271,116.1,18.275,116.017,18.275,116.017z"/>
		<path fill="#E0BF20" d="M16.761,126.718c0,0-0.084-0.441-0.187-0.896c-0.107-0.453-0.229-1.063-0.317-1.679
			c-0.057-0.305-0.07-0.618-0.105-0.905c-0.028-0.29-0.015-0.563-0.02-0.794c-0.006-0.233,0.046-0.426,0.058-0.56
			c0.017-0.133,0.027-0.21,0.027-0.21s-0.004,0.077-0.01,0.213c0.002,0.135-0.033,0.325-0.01,0.556
			c0.029,0.229,0.037,0.495,0.092,0.779c0.058,0.281,0.097,0.584,0.18,0.881c0.139,0.597,0.313,1.186,0.458,1.621
			c0.139,0.437,0.245,0.722,0.245,0.722L16.761,126.718z"/>
		<path fill="#E0BF20" d="M11.097,127.048c-0.151-0.285-0.341-0.673-0.507-1.07c-0.09-0.195-0.148-0.404-0.219-0.593
			c-0.069-0.189-0.1-0.379-0.142-0.534c-0.038-0.155-0.03-0.295-0.041-0.386c-0.007-0.095-0.012-0.147-0.012-0.147
			s0.01,0.052,0.028,0.145c0.022,0.093,0.028,0.226,0.083,0.375c0.059,0.147,0.109,0.326,0.196,0.503
			c0.09,0.177,0.17,0.371,0.282,0.554c0.204,0.369,0.432,0.726,0.611,0.985c0.179,0.26,0.305,0.554,0.305,0.554
			S11.233,127.214,11.097,127.048z"/>
		<path fill="#E0BF20" d="M110.718,156.595c0,0-0.262-0.09-0.567-0.285c-0.156-0.096-0.326-0.214-0.49-0.358
			c-0.162-0.146-0.308-0.339-0.486-0.491c-0.174-0.158-0.361-0.3-0.537-0.432c-0.178-0.128-0.351-0.236-0.507-0.319
			c-0.078-0.042-0.154-0.067-0.221-0.097c-0.064-0.032-0.125-0.046-0.174-0.062c-0.102-0.029-0.159-0.047-0.159-0.047l0.005-0.062
			c0,0,0.062,0,0.171,0c0.055,0,0.122-0.001,0.197,0.016c0.074,0.013,0.164,0.021,0.255,0.045c0.185,0.045,0.396,0.111,0.614,0.209
			c0.105,0.051,0.221,0.098,0.326,0.16c0.107,0.063,0.219,0.122,0.322,0.191c0.216,0.132,0.438,0.253,0.618,0.403
			c0.178,0.157,0.313,0.33,0.415,0.491c0.208,0.319,0.264,0.596,0.264,0.596L110.718,156.595z"/>
		<path fill="#E0BF20" d="M107.005,159.414c0,0-0.324-0.009-0.753-0.123c-0.216-0.053-0.461-0.129-0.709-0.237
			c-0.249-0.113-0.497-0.27-0.76-0.393c-0.263-0.127-0.525-0.25-0.778-0.353c-0.25-0.105-0.486-0.2-0.692-0.269
			c-0.103-0.038-0.198-0.066-0.283-0.087c-0.085-0.021-0.16-0.047-0.222-0.055c-0.126-0.022-0.196-0.037-0.196-0.037V157.8
			c0,0,0.074-0.003,0.206-0.01c0.067-0.007,0.146,0,0.237,0.006c0.092,0.004,0.195,0.012,0.308,0.029
			c0.224,0.026,0.482,0.071,0.755,0.141c0.273,0.064,0.559,0.147,0.846,0.231c0.143,0.042,0.286,0.086,0.427,0.128
			c0.144,0.041,0.281,0.086,0.409,0.138c0.255,0.112,0.479,0.247,0.662,0.379c0.371,0.259,0.572,0.517,0.572,0.517L107.005,159.414z
			"/>
		<g>
			<path opacity="0.3" fill="#191918" d="M67.457,91.146c-2.561,0.229-11.587,0.044-15.073-1.326
				c-3.484-1.371-7.358,0.112-6.685,4.901c0.676,4.785,6.155,14.663,23.379,13.126c17.221-1.538,20.884-12.033,20.406-17.383
				c-0.478-5.347-5.711-4.138-6.982-3.432C81.229,87.74,70.549,90.87,67.457,91.146z"/>
			<path fill="#494638" d="M67.457,89.287c-2.561,0.229-11.587,0.046-15.073-1.325c-3.484-1.369-7.358,0.112-6.685,4.899
				c0.676,4.787,6.155,14.663,23.379,13.127c17.221-1.537,20.884-12.034,20.406-17.382c-0.478-5.347-5.711-4.139-6.982-3.432
				C81.229,85.882,70.549,89.012,67.457,89.287z"/>
			<path fill="#EA3434" d="M61.148,105.825c0,0,2.839-6.985,8.526-7.564c5.684-0.578,9.491,5.313,9.491,5.313
				S69.55,107.399,61.148,105.825z"/>
			<path fill="#EA3434" d="M55.203,104.201c0,0,8.187-9.297,13.587-3.653"/>
			<path fill="#FFFFFF" d="M50.479,101.202c0,0,3.108-3.27,6.194-1.754c3.154,1.549,3.195,4.08,2.674,6.073
				C59.348,105.521,53.762,104.387,50.479,101.202z"/>
			<path fill="#FFFFFF" d="M59.348,105.521c0,0,0.565-4.681,4.687-4.503c4.12,0.176,5.044,4.97,5.044,4.97
				S62.125,106.332,59.348,105.521z"/>
			<path fill="#FFFFFF" d="M69.078,105.988c0,0-0.506-4.497,3.54-5.78c3.702-1.178,6.548,3.365,6.548,3.365
				S73.438,105.925,69.078,105.988z"/>
			<path fill="#FFFFFF" d="M79.166,103.573c0,0-1.981-3.729,0.819-6.155c2.799-2.426,6.519,0.589,6.519,0.589
				S83.672,101.784,79.166,103.573z"/>
			<path fill="#FFFFFF" d="M48.696,87.615c0,0-1.715,4.146,3.259,5.528c4.717,1.311,5.789-4.127,5.789-4.127
				s-4.051-0.61-5.139-0.972C51.519,87.684,49.972,87.469,48.696,87.615z"/>
			<path fill="#FFFFFF" d="M57.782,89.015c0,0,0.03,5.041,5.085,5.134c5.051,0.094,4.628-4.864,4.628-4.864
				S63.143,90.069,57.782,89.015z"/>
			<path fill="#FFFFFF" d="M67.495,89.284c0,0,1.061,4.885,5.923,3.964c4.863-0.92,3.424-6.185,3.424-6.185
				S73.576,88.493,67.495,89.284z"/>
			<path fill="#FFFFFF" d="M76.842,87.063c0,0,1.456,4.769,6.018,3.224c4.561-1.544,3.013-5.723,3.013-5.723
				s-1.413-0.229-2.835,0.375C81.616,85.545,76.842,87.063,76.842,87.063z"/>
			<path fill="#D1AE19" d="M65.586,106.648c-14.591,0-19.71-8.974-20.381-13.718c-0.256-1.825,0.1-3.354,1.029-4.425
				c0.856-0.986,2.166-1.53,3.685-1.53c0.863,0,1.779,0.181,2.647,0.523c2.413,0.947,7.901,1.373,12.27,1.373
				c1.076,0,1.992-0.029,2.578-0.081c3.094-0.277,13.752-3.443,14.846-4.051c0.606-0.339,1.827-0.7,3.071-0.7
				c1.586,0,4.3,0.588,4.651,4.521c0.491,5.512-3.235,16.351-20.86,17.924C67.912,106.592,66.723,106.648,65.586,106.648z
				 M49.919,87.974c-1.226,0-2.268,0.421-2.932,1.187c-0.734,0.846-1.009,2.1-0.794,3.633c0.628,4.445,5.486,12.857,19.393,12.857
				c1.107,0,2.268-0.053,3.447-0.16c16.84-1.503,20.416-11.671,19.954-16.837c-0.213-2.4-1.443-3.617-3.656-3.617
				c-1.139,0-2.17,0.344-2.587,0.574c-1.423,0.791-12.121,3.896-15.242,4.174c-0.612,0.055-1.561,0.084-2.666,0.084
				c-3.33,0-9.737-0.304-12.633-1.441C51.448,88.131,50.659,87.974,49.919,87.974z"/>
			<g>
				<path fill="#D1AE19" d="M47.129,85.151c0,0-0.514,0.197-1.175,0.628c-0.164,0.107-0.339,0.226-0.515,0.359
					c-0.185,0.123-0.347,0.293-0.536,0.437c-0.164,0.172-0.353,0.331-0.506,0.524c-0.17,0.182-0.323,0.379-0.456,0.592
					c-0.299,0.403-0.503,0.864-0.691,1.302c-0.076,0.229-0.15,0.448-0.22,0.657c-0.077,0.21-0.099,0.421-0.152,0.611
					c-0.104,0.383-0.144,0.716-0.181,0.949c-0.039,0.234-0.071,0.371-0.071,0.371s-0.034-0.132-0.074-0.369
					c-0.027-0.236-0.125-0.579-0.102-0.996c0.008-0.208-0.019-0.44,0.031-0.677c0.042-0.237,0.065-0.496,0.141-0.751
					c0.091-0.249,0.148-0.525,0.279-0.776c0.135-0.247,0.245-0.517,0.422-0.745c0.646-0.969,1.653-1.608,2.444-1.874
					c0.396-0.142,0.742-0.197,0.981-0.229C46.993,85.132,47.129,85.151,47.129,85.151z"/>
			</g>
			<g>
				<path fill="#D1AE19" d="M88.399,82.012c0,0,0.518,0.097,1.215,0.46c0.35,0.179,0.733,0.434,1.115,0.749
					c0.379,0.317,0.748,0.704,1.061,1.137c0.31,0.433,0.568,0.908,0.729,1.384c0.102,0.229,0.146,0.469,0.195,0.691
					c0.06,0.221,0.084,0.435,0.089,0.634c0.045,0.394-0.004,0.723-0.028,0.948c-0.026,0.226-0.052,0.352-0.052,0.352
					s-0.041-0.127-0.094-0.344c-0.04-0.219-0.126-0.522-0.248-0.873c-0.103-0.354-0.272-0.748-0.47-1.151
					c-0.2-0.403-0.438-0.821-0.729-1.202c-0.269-0.398-0.596-0.757-0.902-1.095c-0.317-0.328-0.628-0.628-0.908-0.876
					C88.818,82.32,88.399,82.012,88.399,82.012z"/>
			</g>
		</g>
	</g>
</g>
</svg>
